<?xml version="1.0" encoding="UTF-8" standalone="no"?>
<!-- Created with Inkscape (http://www.inkscape.org/) -->
<svg
   xmlns:ns0="http://www.iki.fi/pav/software/textext/"
   xmlns:dc="http://purl.org/dc/elements/1.1/"
   xmlns:cc="http://creativecommons.org/ns#"
   xmlns:rdf="http://www.w3.org/1999/02/22-rdf-syntax-ns#"
   xmlns:svg="http://www.w3.org/2000/svg"
   xmlns="http://www.w3.org/2000/svg"
   xmlns:xlink="http://www.w3.org/1999/xlink"
   xmlns:sodipodi="http://sodipodi.sourceforge.net/DTD/sodipodi-0.dtd"
   xmlns:inkscape="http://www.inkscape.org/namespaces/inkscape"
   width="1052.3622"
   height="744.09448"
   id="svg3267"
   sodipodi:version="0.32"
   inkscape:version="0.46"
   version="1.0"
   sodipodi:docname="bc_cube_types.svg"
   inkscape:output_extension="org.inkscape.output.svg.inkscape">
  <sodipodi:namedview
     id="base"
     pagecolor="#ffffff"
     bordercolor="#666666"
     borderopacity="1.0"
     gridtolerance="10000"
     guidetolerance="10"
     objecttolerance="10"
     inkscape:pageopacity="0.0"
     inkscape:pageshadow="2"
     inkscape:zoom="0.98994949"
     inkscape:cx="472.62071"
     inkscape:cy="387.12121"
     inkscape:document-units="px"
     inkscape:current-layer="layer1"
     showgrid="false"
     inkscape:window-width="1280"
     inkscape:window-height="951"
     inkscape:window-x="0"
     inkscape:window-y="25" />
  <defs
     id="defs3269">
    <linearGradient
       id="linearGradient6037">
      <stop
         style="stop-color:#000000;stop-opacity:0.18103448;"
         offset="0"
         id="stop6039" />
      <stop
         style="stop-color:#000000;stop-opacity:0;"
         offset="1"
         id="stop6041" />
    </linearGradient>
    <linearGradient
       id="linearGradient6015">
      <stop
         id="stop6017"
         offset="0"
         style="stop-color:#000000;stop-opacity:0;" />
      <stop
         id="stop6019"
         offset="1"
         style="stop-color:#000000;stop-opacity:0.18103448;" />
    </linearGradient>
    <inkscape:perspective
       id="perspective3275"
       inkscape:persp3d-origin="943.79358 : 411.39654 : 1"
       inkscape:vp_z="1315.8408 : 586.79024 : 1"
       inkscape:vp_y="6.1230318e-14 : 1000 : 0"
       inkscape:vp_x="571.74634 : 586.79024 : 1"
       sodipodi:type="inkscape:persp3d" />
  </defs>
  <metadata
     id="metadata3272">
    <rdf:RDF>
      <cc:Work
         rdf:about="">
        <dc:format>image/svg+xml</dc:format>
        <dc:type
           rdf:resource="http://purl.org/dc/dcmitype/StillImage" />
      </cc:Work>
    </rdf:RDF>
  </metadata>
  <g
     id="layer1"
     inkscape:groupmode="layer"
     inkscape:label="Layer 1">
    <path
       id="path3285"
       d="M 548.6309,146.35989 L 548.6309,566.35989 L 784.34519,313.50274 M 547.20233,566.35989 L 210.05948,493.50274"
       style="fill:none;fill-rule:evenodd;stroke:#000000;stroke-width:5;stroke-linecap:butt;stroke-linejoin:miter;stroke-miterlimit:4;stroke-dasharray:none;stroke-opacity:1" />
    <path
       id="path3796"
       d="M 819.96903,569.36603 L 819.96903,674.36603 L 878.8976,611.15174 M 819.61188,674.36603 L 735.32617,656.15174"
       style="fill:none;fill-rule:evenodd;stroke:#000000;stroke-width:1.25;stroke-linecap:butt;stroke-linejoin:miter;stroke-miterlimit:4;stroke-dasharray:none;stroke-opacity:1" />
    <g
       id="g3806"
       ns0:preamble=""
       ns0:text="$x$"
       transform="matrix(2,0,0,2,434.43432,360.33788)">
      <defs
         id="defs3808">
        <g
           id="g3810">
          <symbol
             id="textext-a9a45495-0"
             overflow="visible"
             style="overflow:visible">
            <path
               id="path3813"
               d=""
               style="stroke:none" />
          </symbol>
          <symbol
             id="textext-a9a45495-1"
             overflow="visible"
             style="overflow:visible">
            <path
               id="path3816"
               d="M 3.328125,-3.015625 C 3.390625,-3.265625 3.625,-4.1875 4.3125,-4.1875 C 4.359375,-4.1875 4.609375,-4.1875 4.8125,-4.0625 C 4.53125,-4 4.34375,-3.765625 4.34375,-3.515625 C 4.34375,-3.359375 4.453125,-3.171875 4.71875,-3.171875 C 4.9375,-3.171875 5.25,-3.34375 5.25,-3.75 C 5.25,-4.265625 4.671875,-4.40625 4.328125,-4.40625 C 3.75,-4.40625 3.40625,-3.875 3.28125,-3.65625 C 3.03125,-4.3125 2.5,-4.40625 2.203125,-4.40625 C 1.171875,-4.40625 0.59375,-3.125 0.59375,-2.875 C 0.59375,-2.765625 0.703125,-2.765625 0.71875,-2.765625 C 0.796875,-2.765625 0.828125,-2.796875 0.84375,-2.875 C 1.1875,-3.9375 1.84375,-4.1875 2.1875,-4.1875 C 2.375,-4.1875 2.71875,-4.09375 2.71875,-3.515625 C 2.71875,-3.203125 2.546875,-2.546875 2.1875,-1.140625 C 2.03125,-0.53125 1.671875,-0.109375 1.234375,-0.109375 C 1.171875,-0.109375 0.953125,-0.109375 0.734375,-0.234375 C 0.984375,-0.296875 1.203125,-0.5 1.203125,-0.78125 C 1.203125,-1.046875 0.984375,-1.125 0.84375,-1.125 C 0.53125,-1.125 0.296875,-0.875 0.296875,-0.546875 C 0.296875,-0.09375 0.78125,0.109375 1.21875,0.109375 C 1.890625,0.109375 2.25,-0.59375 2.265625,-0.640625 C 2.390625,-0.28125 2.75,0.109375 3.34375,0.109375 C 4.375,0.109375 4.9375,-1.171875 4.9375,-1.421875 C 4.9375,-1.53125 4.859375,-1.53125 4.828125,-1.53125 C 4.734375,-1.53125 4.71875,-1.484375 4.6875,-1.421875 C 4.359375,-0.34375 3.6875,-0.109375 3.375,-0.109375 C 2.984375,-0.109375 2.828125,-0.421875 2.828125,-0.765625 C 2.828125,-0.984375 2.875,-1.203125 2.984375,-1.640625 L 3.328125,-3.015625 z"
               style="stroke:none" />
          </symbol>
        </g>
      </defs>
      <g
         id="textext-a9a45495-2">
        <g
           id="g3819"
           style="fill:#000000;fill-opacity:1">
          <use
             id="use3821"
             y="134.765"
             x="223.43201"
             xlink:href="#textext-a9a45495-1"
             width="1052.3622"
             height="744.09448" />
        </g>
      </g>
    </g>
    <g
       ns0:text="$y$"
       ns0:preamble=""
       transform="matrix(2,0,0,2,285.00047,406.13037)"
       id="g3877">
      <defs
         id="defs3879">
        <g
           id="g3881">
          <symbol
             style="overflow:visible"
             overflow="visible"
             id="textext-129d527c-0">
            <path
               style="stroke:none"
               d=""
               id="path3884" />
          </symbol>
          <symbol
             style="overflow:visible"
             overflow="visible"
             id="textext-129d527c-1">
            <path
               style="stroke:none"
               d="M 4.84375,-3.796875 C 4.890625,-3.9375 4.890625,-3.953125 4.890625,-4.03125 C 4.890625,-4.203125 4.75,-4.296875 4.59375,-4.296875 C 4.5,-4.296875 4.34375,-4.234375 4.25,-4.09375 C 4.234375,-4.03125 4.140625,-3.734375 4.109375,-3.546875 C 4.03125,-3.296875 3.96875,-3.015625 3.90625,-2.75 L 3.453125,-0.953125 C 3.421875,-0.8125 2.984375,-0.109375 2.328125,-0.109375 C 1.828125,-0.109375 1.71875,-0.546875 1.71875,-0.921875 C 1.71875,-1.375 1.890625,-2 2.21875,-2.875 C 2.375,-3.28125 2.421875,-3.390625 2.421875,-3.59375 C 2.421875,-4.03125 2.109375,-4.40625 1.609375,-4.40625 C 0.65625,-4.40625 0.296875,-2.953125 0.296875,-2.875 C 0.296875,-2.765625 0.390625,-2.765625 0.40625,-2.765625 C 0.515625,-2.765625 0.515625,-2.796875 0.5625,-2.953125 C 0.84375,-3.890625 1.234375,-4.1875 1.578125,-4.1875 C 1.65625,-4.1875 1.828125,-4.1875 1.828125,-3.875 C 1.828125,-3.625 1.71875,-3.359375 1.65625,-3.171875 C 1.25,-2.109375 1.078125,-1.546875 1.078125,-1.078125 C 1.078125,-0.1875 1.703125,0.109375 2.296875,0.109375 C 2.6875,0.109375 3.015625,-0.0625 3.296875,-0.34375 C 3.171875,0.171875 3.046875,0.671875 2.65625,1.203125 C 2.390625,1.53125 2.015625,1.828125 1.5625,1.828125 C 1.421875,1.828125 0.96875,1.796875 0.796875,1.40625 C 0.953125,1.40625 1.09375,1.40625 1.21875,1.28125 C 1.328125,1.203125 1.421875,1.0625 1.421875,0.875 C 1.421875,0.5625 1.15625,0.53125 1.0625,0.53125 C 0.828125,0.53125 0.5,0.6875 0.5,1.171875 C 0.5,1.671875 0.9375,2.046875 1.5625,2.046875 C 2.578125,2.046875 3.609375,1.140625 3.890625,0.015625 L 4.84375,-3.796875 z"
               id="path3887" />
          </symbol>
        </g>
      </defs>
      <g
         id="textext-129d527c-2">
        <g
           style="fill:#000000;fill-opacity:1"
           id="g3890">
          <use
             height="744.09448"
             width="1052.3622"
             xlink:href="#textext-129d527c-1"
             x="223.43201"
             y="134.765"
             id="use3892" />
        </g>
      </g>
    </g>
    <g
       id="g3968"
       transform="matrix(2,0,0,2,355.71115,319.25725)"
       ns0:preamble=""
       ns0:text="$z$">
      <defs
         id="defs3970">
        <g
           id="g3972">
          <symbol
             id="textext-222e8ddc-0"
             overflow="visible">
            <path
               id="path3975"
               d=""
               style="stroke: none;" />
          </symbol>
          <symbol
             id="textext-222e8ddc-1"
             overflow="visible">
            <path
               id="path3978"
               d="M 1.328125 -0.828125 C 1.859375 -1.40625 2.15625 -1.65625 2.515625 -1.96875 C 2.515625 -1.96875 3.125 -2.5 3.484375 -2.859375 C 4.4375 -3.78125 4.65625 -4.265625 4.65625 -4.3125 C 4.65625 -4.40625 4.5625 -4.40625 4.546875 -4.40625 C 4.46875 -4.40625 4.453125 -4.390625 4.390625 -4.296875 C 4.09375 -3.8125 3.890625 -3.65625 3.65625 -3.65625 C 3.40625 -3.65625 3.296875 -3.8125 3.140625 -3.984375 C 2.953125 -4.203125 2.78125 -4.40625 2.453125 -4.40625 C 1.703125 -4.40625 1.25 -3.484375 1.25 -3.265625 C 1.25 -3.21875 1.28125 -3.15625 1.359375 -3.15625 C 1.453125 -3.15625 1.46875 -3.203125 1.5 -3.265625 C 1.6875 -3.734375 2.265625 -3.734375 2.34375 -3.734375 C 2.546875 -3.734375 2.734375 -3.671875 2.96875 -3.59375 C 3.375 -3.4375 3.484375 -3.4375 3.734375 -3.4375 C 3.375 -3.015625 2.546875 -2.296875 2.359375 -2.140625 C 1.859375 -1.6875 1.84375 -1.671875 1.453125 -1.296875 C 0.78125 -0.625 0.421875 -0.0625 0.421875 0.015625 C 0.421875 0.109375 0.53125 0.109375 0.546875 0.109375 C 0.625 0.109375 0.640625 0.09375 0.703125 -0.015625 C 0.9375 -0.375 1.234375 -0.640625 1.5625 -0.640625 C 1.78125 -0.640625 1.890625 -0.546875 2.140625 -0.265625 C 2.296875 -0.046875 2.484375 0.109375 2.765625 0.109375 C 3.765625 0.109375 4.34375 -1.15625 4.34375 -1.421875 C 4.34375 -1.46875 4.296875 -1.53125 4.21875 -1.53125 C 4.125 -1.53125 4.109375 -1.46875 4.078125 -1.390625 C 3.84375 -0.75 3.203125 -0.5625 2.875 -0.5625 C 2.6875 -0.5625 2.5 -0.625 2.296875 -0.6875 C 1.953125 -0.8125 1.796875 -0.859375 1.59375 -0.859375 C 1.578125 -0.859375 1.421875 -0.859375 1.328125 -0.828125 Z M 1.328125 -0.828125 "
               style="stroke: none;" />
          </symbol>
        </g>
      </defs>
      <g
         id="textext-222e8ddc-2">
        <g
           id="g3981"
           style="fill: rgb(0%,0%,0%); fill-opacity: 1;">
          <use
             id="use3983"
             y="134.765"
             x="223.432"
             xlink:href="#textext-222e8ddc-1" />
        </g>
      </g>
    </g>
    <g
       transform="matrix(3,0,0,3,-40.671187,-193.07427)"
       ns0:text="$\\textbf{u} \\cdot e_y = 0$"
       ns0:preamble=""
       id="g4059"
       style="opacity:1;color:#000000;fill:#ff0000;fill-opacity:1;fill-rule:nonzero;stroke-width:1;stroke-linecap:butt;stroke-linejoin:miter;marker:none;marker-start:none;marker-mid:none;marker-end:none;stroke-miterlimit:4;stroke-dasharray:none;stroke-dashoffset:0;stroke-opacity:1;visibility:visible;display:inline;overflow:visible;enable-background:accumulate">
      <defs
         id="defs4061">
        <g
           id="g4063">
          <symbol
             style="overflow:visible"
             overflow="visible"
             id="textext-edda99f8-0">
            <path
               style="stroke:none"
               d=""
               id="path4066" />
          </symbol>
          <symbol
             style="overflow:visible"
             overflow="visible"
             id="textext-edda99f8-1">
            <path
               style="stroke:none"
               d="M 1.859375,-2.296875 C 2.15625,-2.296875 2.890625,-2.328125 3.390625,-2.53125 C 4.09375,-2.828125 4.140625,-3.421875 4.140625,-3.5625 C 4.140625,-4 3.765625,-4.40625 3.078125,-4.40625 C 1.96875,-4.40625 0.453125,-3.4375 0.453125,-1.6875 C 0.453125,-0.671875 1.046875,0.109375 2.03125,0.109375 C 3.453125,0.109375 4.28125,-0.953125 4.28125,-1.0625 C 4.28125,-1.125 4.234375,-1.203125 4.171875,-1.203125 C 4.109375,-1.203125 4.09375,-1.171875 4.03125,-1.09375 C 3.25,-0.109375 2.15625,-0.109375 2.046875,-0.109375 C 1.265625,-0.109375 1.171875,-0.953125 1.171875,-1.265625 C 1.171875,-1.390625 1.1875,-1.6875 1.328125,-2.296875 L 1.859375,-2.296875 z M 1.390625,-2.515625 C 1.78125,-4.03125 2.8125,-4.1875 3.078125,-4.1875 C 3.53125,-4.1875 3.8125,-3.890625 3.8125,-3.5625 C 3.8125,-2.515625 2.21875,-2.515625 1.796875,-2.515625 L 1.390625,-2.515625 z"
               id="path4069" />
          </symbol>
          <symbol
             style="overflow:visible"
             overflow="visible"
             id="textext-edda99f8-2">
            <path
               style="stroke:none"
               d=""
               id="path4072" />
          </symbol>
          <symbol
             style="overflow:visible"
             overflow="visible"
             id="textext-edda99f8-3">
            <path
               style="stroke:none"
               d="M 1.90625,-2.5 C 1.90625,-2.78125 1.671875,-3.015625 1.390625,-3.015625 C 1.09375,-3.015625 0.859375,-2.78125 0.859375,-2.5 C 0.859375,-2.203125 1.09375,-1.96875 1.390625,-1.96875 C 1.671875,-1.96875 1.90625,-2.203125 1.90625,-2.5 z"
               id="path4075" />
          </symbol>
          <symbol
             style="overflow:visible"
             overflow="visible"
             id="textext-edda99f8-4">
            <path
               style="stroke:none"
               d=""
               id="path4078" />
          </symbol>
          <symbol
             style="overflow:visible"
             overflow="visible"
             id="textext-edda99f8-5">
            <path
               style="stroke:none"
               d="M 6.84375,-3.265625 C 7,-3.265625 7.1875,-3.265625 7.1875,-3.453125 C 7.1875,-3.65625 7,-3.65625 6.859375,-3.65625 L 0.890625,-3.65625 C 0.75,-3.65625 0.5625,-3.65625 0.5625,-3.453125 C 0.5625,-3.265625 0.75,-3.265625 0.890625,-3.265625 L 6.84375,-3.265625 z M 6.859375,-1.328125 C 7,-1.328125 7.1875,-1.328125 7.1875,-1.53125 C 7.1875,-1.71875 7,-1.71875 6.84375,-1.71875 L 0.890625,-1.71875 C 0.75,-1.71875 0.5625,-1.71875 0.5625,-1.53125 C 0.5625,-1.328125 0.75,-1.328125 0.890625,-1.328125 L 6.859375,-1.328125 z"
               id="path4081" />
          </symbol>
          <symbol
             style="overflow:visible"
             overflow="visible"
             id="textext-edda99f8-6">
            <path
               style="stroke:none"
               d="M 4.578125,-3.1875 C 4.578125,-3.984375 4.53125,-4.78125 4.1875,-5.515625 C 3.734375,-6.484375 2.90625,-6.640625 2.5,-6.640625 C 1.890625,-6.640625 1.171875,-6.375 0.75,-5.453125 C 0.4375,-4.765625 0.390625,-3.984375 0.390625,-3.1875 C 0.390625,-2.4375 0.421875,-1.546875 0.84375,-0.78125 C 1.265625,0.015625 2,0.21875 2.484375,0.21875 C 3.015625,0.21875 3.78125,0.015625 4.21875,-0.9375 C 4.53125,-1.625 4.578125,-2.40625 4.578125,-3.1875 z M 2.484375,0 C 2.09375,0 1.5,-0.25 1.328125,-1.203125 C 1.21875,-1.796875 1.21875,-2.71875 1.21875,-3.3125 C 1.21875,-3.953125 1.21875,-4.609375 1.296875,-5.140625 C 1.484375,-6.328125 2.234375,-6.421875 2.484375,-6.421875 C 2.8125,-6.421875 3.46875,-6.234375 3.65625,-5.25 C 3.765625,-4.6875 3.765625,-3.9375 3.765625,-3.3125 C 3.765625,-2.5625 3.765625,-1.890625 3.65625,-1.25 C 3.5,-0.296875 2.9375,0 2.484375,0 z"
               id="path4084" />
          </symbol>
          <symbol
             style="overflow:visible"
             overflow="visible"
             id="textext-edda99f8-7">
            <path
               style="stroke:none"
               d=""
               id="path4087" />
          </symbol>
          <symbol
             style="overflow:visible"
             overflow="visible"
             id="textext-edda99f8-8">
            <path
               style="stroke:none"
               d="M 4.359375,-0.71875 L 4.359375,0.0625 L 6.125,0 L 6.125,-0.46875 C 5.515625,-0.46875 5.4375,-0.46875 5.4375,-0.859375 L 5.4375,-4.484375 L 3.625,-4.40625 L 3.625,-3.9375 C 4.234375,-3.9375 4.3125,-3.9375 4.3125,-3.546875 L 4.3125,-1.640625 C 4.3125,-0.828125 3.796875,-0.296875 3.078125,-0.296875 C 2.296875,-0.296875 2.265625,-0.546875 2.265625,-1.09375 L 2.265625,-4.484375 L 0.453125,-4.40625 L 0.453125,-3.9375 C 1.0625,-3.9375 1.140625,-3.9375 1.140625,-3.546875 L 1.140625,-1.21875 C 1.140625,-0.15625 1.9375,0.0625 2.9375,0.0625 C 3.1875,0.0625 3.90625,0.0625 4.359375,-0.71875 z"
               id="path4090" />
          </symbol>
          <symbol
             style="overflow:visible"
             overflow="visible"
             id="textext-edda99f8-9">
            <path
               style="stroke:none"
               d=""
               id="path4093" />
          </symbol>
          <symbol
             style="overflow:visible"
             overflow="visible"
             id="textext-edda99f8-10">
            <path
               style="stroke:none"
               d="M 3.875,-2.625 C 3.90625,-2.71875 3.90625,-2.734375 3.90625,-2.78125 C 3.90625,-2.921875 3.796875,-3 3.671875,-3 C 3.59375,-3 3.46875,-2.96875 3.390625,-2.84375 C 3.359375,-2.796875 3.3125,-2.578125 3.28125,-2.4375 L 3.125,-1.859375 C 3.09375,-1.6875 2.875,-0.8125 2.84375,-0.734375 C 2.84375,-0.734375 2.53125,-0.125 2,-0.125 C 1.515625,-0.125 1.515625,-0.578125 1.515625,-0.703125 C 1.515625,-1.078125 1.671875,-1.515625 1.890625,-2.0625 C 1.96875,-2.28125 2,-2.359375 2,-2.484375 C 2,-2.8125 1.71875,-3.078125 1.34375,-3.078125 C 0.640625,-3.078125 0.328125,-2.125 0.328125,-2 C 0.328125,-1.921875 0.421875,-1.921875 0.453125,-1.921875 C 0.546875,-1.921875 0.546875,-1.953125 0.578125,-2.03125 C 0.75,-2.609375 1.046875,-2.875 1.328125,-2.875 C 1.4375,-2.875 1.5,-2.796875 1.5,-2.640625 C 1.5,-2.46875 1.4375,-2.328125 1.40625,-2.234375 C 1.0625,-1.375 1,-1.125 1,-0.8125 C 1,-0.703125 1,-0.375 1.265625,-0.140625 C 1.484375,0.03125 1.78125,0.0625 1.96875,0.0625 C 2.25,0.0625 2.5,-0.03125 2.71875,-0.25 C 2.640625,0.140625 2.5625,0.4375 2.265625,0.78125 C 2.078125,1 1.796875,1.21875 1.421875,1.21875 C 1.375,1.21875 1.046875,1.21875 0.90625,1 C 1.28125,0.953125 1.28125,0.625 1.28125,0.609375 C 1.28125,0.390625 1.078125,0.34375 1.015625,0.34375 C 0.84375,0.34375 0.609375,0.484375 0.609375,0.8125 C 0.609375,1.15625 0.9375,1.421875 1.4375,1.421875 C 2.140625,1.421875 3,0.875 3.21875,0 L 3.875,-2.625 z"
               id="path4096" />
          </symbol>
        </g>
      </defs>
      <g
         id="textext-edda99f8-11"
         style="color:#000000;fill:#ff0000;fill-opacity:1;fill-rule:nonzero;stroke-width:1;stroke-linecap:butt;stroke-linejoin:miter;marker:none;marker-start:none;marker-mid:none;marker-end:none;stroke-miterlimit:4;stroke-dasharray:none;stroke-dashoffset:0;stroke-opacity:1;visibility:visible;display:inline;overflow:visible;enable-background:accumulate">
        <g
           style="fill:#ff0000;fill-opacity:1;color:#000000;fill-rule:nonzero;stroke-width:1;stroke-linecap:butt;stroke-linejoin:miter;marker:none;marker-start:none;marker-mid:none;marker-end:none;stroke-miterlimit:4;stroke-dasharray:none;stroke-dashoffset:0;stroke-opacity:1;visibility:visible;display:inline;overflow:visible;enable-background:accumulate"
           id="g4099">
          <use
             height="744.09448"
             width="1052.3622"
             xlink:href="#textext-edda99f8-8"
             x="223.43201"
             y="134.765"
             id="use4101"
             style="color:#000000;fill:#ff0000;fill-opacity:1;fill-rule:nonzero;stroke-width:1;stroke-linecap:butt;stroke-linejoin:miter;marker:none;marker-start:none;marker-mid:none;marker-end:none;stroke-miterlimit:4;stroke-dasharray:none;stroke-dashoffset:0;stroke-opacity:1;visibility:visible;display:inline;overflow:visible;enable-background:accumulate" />
        </g>
        <g
           style="fill:#ff0000;fill-opacity:1;color:#000000;fill-rule:nonzero;stroke-width:1;stroke-linecap:butt;stroke-linejoin:miter;marker:none;marker-start:none;marker-mid:none;marker-end:none;stroke-miterlimit:4;stroke-dasharray:none;stroke-dashoffset:0;stroke-opacity:1;visibility:visible;display:inline;overflow:visible;enable-background:accumulate"
           id="g4103">
          <use
             height="744.09448"
             width="1052.3622"
             xlink:href="#textext-edda99f8-3"
             x="232.011"
             y="134.765"
             id="use4105"
             style="color:#000000;fill:#ff0000;fill-opacity:1;fill-rule:nonzero;stroke-width:1;stroke-linecap:butt;stroke-linejoin:miter;marker:none;marker-start:none;marker-mid:none;marker-end:none;stroke-miterlimit:4;stroke-dasharray:none;stroke-dashoffset:0;stroke-opacity:1;visibility:visible;display:inline;overflow:visible;enable-background:accumulate" />
        </g>
        <g
           style="fill:#ff0000;fill-opacity:1;color:#000000;fill-rule:nonzero;stroke-width:1;stroke-linecap:butt;stroke-linejoin:miter;marker:none;marker-start:none;marker-mid:none;marker-end:none;stroke-miterlimit:4;stroke-dasharray:none;stroke-dashoffset:0;stroke-opacity:1;visibility:visible;display:inline;overflow:visible;enable-background:accumulate"
           id="g4107">
          <use
             height="744.09448"
             width="1052.3622"
             xlink:href="#textext-edda99f8-1"
             x="236.992"
             y="134.765"
             id="use4109"
             style="color:#000000;fill:#ff0000;fill-opacity:1;fill-rule:nonzero;stroke-width:1;stroke-linecap:butt;stroke-linejoin:miter;marker:none;marker-start:none;marker-mid:none;marker-end:none;stroke-miterlimit:4;stroke-dasharray:none;stroke-dashoffset:0;stroke-opacity:1;visibility:visible;display:inline;overflow:visible;enable-background:accumulate" />
        </g>
        <g
           style="fill:#ff0000;fill-opacity:1;color:#000000;fill-rule:nonzero;stroke-width:1;stroke-linecap:butt;stroke-linejoin:miter;marker:none;marker-start:none;marker-mid:none;marker-end:none;stroke-miterlimit:4;stroke-dasharray:none;stroke-dashoffset:0;stroke-opacity:1;visibility:visible;display:inline;overflow:visible;enable-background:accumulate"
           id="g4111">
          <use
             height="744.09448"
             width="1052.3622"
             xlink:href="#textext-edda99f8-10"
             x="241.631"
             y="136.259"
             id="use4113"
             style="color:#000000;fill:#ff0000;fill-opacity:1;fill-rule:nonzero;stroke-width:1;stroke-linecap:butt;stroke-linejoin:miter;marker:none;marker-start:none;marker-mid:none;marker-end:none;stroke-miterlimit:4;stroke-dasharray:none;stroke-dashoffset:0;stroke-opacity:1;visibility:visible;display:inline;overflow:visible;enable-background:accumulate" />
        </g>
        <g
           style="fill:#ff0000;fill-opacity:1;color:#000000;fill-rule:nonzero;stroke-width:1;stroke-linecap:butt;stroke-linejoin:miter;marker:none;marker-start:none;marker-mid:none;marker-end:none;stroke-miterlimit:4;stroke-dasharray:none;stroke-dashoffset:0;stroke-opacity:1;visibility:visible;display:inline;overflow:visible;enable-background:accumulate"
           id="g4115">
          <use
             height="744.09448"
             width="1052.3622"
             xlink:href="#textext-edda99f8-5"
             x="249.187"
             y="134.765"
             id="use4117"
             style="color:#000000;fill:#ff0000;fill-opacity:1;fill-rule:nonzero;stroke-width:1;stroke-linecap:butt;stroke-linejoin:miter;marker:none;marker-start:none;marker-mid:none;marker-end:none;stroke-miterlimit:4;stroke-dasharray:none;stroke-dashoffset:0;stroke-opacity:1;visibility:visible;display:inline;overflow:visible;enable-background:accumulate" />
        </g>
        <g
           style="fill:#ff0000;fill-opacity:1;color:#000000;fill-rule:nonzero;stroke-width:1;stroke-linecap:butt;stroke-linejoin:miter;marker:none;marker-start:none;marker-mid:none;marker-end:none;stroke-miterlimit:4;stroke-dasharray:none;stroke-dashoffset:0;stroke-opacity:1;visibility:visible;display:inline;overflow:visible;enable-background:accumulate"
           id="g4119">
          <use
             height="744.09448"
             width="1052.3622"
             xlink:href="#textext-edda99f8-6"
             x="259.70551"
             y="134.765"
             id="use4121"
             style="color:#000000;fill:#ff0000;fill-opacity:1;fill-rule:nonzero;stroke-width:1;stroke-linecap:butt;stroke-linejoin:miter;marker:none;marker-start:none;marker-mid:none;marker-end:none;stroke-miterlimit:4;stroke-dasharray:none;stroke-dashoffset:0;stroke-opacity:1;visibility:visible;display:inline;overflow:visible;enable-background:accumulate" />
        </g>
      </g>
    </g>
    <g
       id="g4369"
       transform="matrix(3,0,0,3,-363.54747,-65.745475)"
       ns0:preamble=""
       ns0:text="$\\textbf{u} \\cdot e_x = 0$"
       style="fill:#ff0000;fill-opacity:1">
      <defs
         id="defs4371">
        <g
           id="g4373">
          <symbol
             id="textext-ed079bd7-0"
             overflow="visible"
             style="overflow:visible">
            <path
               id="path4376"
               d=""
               style="stroke:none" />
          </symbol>
          <symbol
             id="textext-ed079bd7-1"
             overflow="visible"
             style="overflow:visible">
            <path
               id="path4379"
               d="M 4.359375,-0.71875 L 4.359375,0.0625 L 6.125,0 L 6.125,-0.46875 C 5.515625,-0.46875 5.4375,-0.46875 5.4375,-0.859375 L 5.4375,-4.484375 L 3.625,-4.40625 L 3.625,-3.9375 C 4.234375,-3.9375 4.3125,-3.9375 4.3125,-3.546875 L 4.3125,-1.640625 C 4.3125,-0.828125 3.796875,-0.296875 3.078125,-0.296875 C 2.296875,-0.296875 2.265625,-0.546875 2.265625,-1.09375 L 2.265625,-4.484375 L 0.453125,-4.40625 L 0.453125,-3.9375 C 1.0625,-3.9375 1.140625,-3.9375 1.140625,-3.546875 L 1.140625,-1.21875 C 1.140625,-0.15625 1.9375,0.0625 2.9375,0.0625 C 3.1875,0.0625 3.90625,0.0625 4.359375,-0.71875 z"
               style="stroke:none" />
          </symbol>
          <symbol
             id="textext-ed079bd7-2"
             overflow="visible"
             style="overflow:visible">
            <path
               id="path4382"
               d=""
               style="stroke:none" />
          </symbol>
          <symbol
             id="textext-ed079bd7-3"
             overflow="visible"
             style="overflow:visible">
            <path
               id="path4385"
               d="M 6.84375,-3.265625 C 7,-3.265625 7.1875,-3.265625 7.1875,-3.453125 C 7.1875,-3.65625 7,-3.65625 6.859375,-3.65625 L 0.890625,-3.65625 C 0.75,-3.65625 0.5625,-3.65625 0.5625,-3.453125 C 0.5625,-3.265625 0.75,-3.265625 0.890625,-3.265625 L 6.84375,-3.265625 z M 6.859375,-1.328125 C 7,-1.328125 7.1875,-1.328125 7.1875,-1.53125 C 7.1875,-1.71875 7,-1.71875 6.84375,-1.71875 L 0.890625,-1.71875 C 0.75,-1.71875 0.5625,-1.71875 0.5625,-1.53125 C 0.5625,-1.328125 0.75,-1.328125 0.890625,-1.328125 L 6.859375,-1.328125 z"
               style="stroke:none" />
          </symbol>
          <symbol
             id="textext-ed079bd7-4"
             overflow="visible"
             style="overflow:visible">
            <path
               id="path4388"
               d="M 4.578125,-3.1875 C 4.578125,-3.984375 4.53125,-4.78125 4.1875,-5.515625 C 3.734375,-6.484375 2.90625,-6.640625 2.5,-6.640625 C 1.890625,-6.640625 1.171875,-6.375 0.75,-5.453125 C 0.4375,-4.765625 0.390625,-3.984375 0.390625,-3.1875 C 0.390625,-2.4375 0.421875,-1.546875 0.84375,-0.78125 C 1.265625,0.015625 2,0.21875 2.484375,0.21875 C 3.015625,0.21875 3.78125,0.015625 4.21875,-0.9375 C 4.53125,-1.625 4.578125,-2.40625 4.578125,-3.1875 z M 2.484375,0 C 2.09375,0 1.5,-0.25 1.328125,-1.203125 C 1.21875,-1.796875 1.21875,-2.71875 1.21875,-3.3125 C 1.21875,-3.953125 1.21875,-4.609375 1.296875,-5.140625 C 1.484375,-6.328125 2.234375,-6.421875 2.484375,-6.421875 C 2.8125,-6.421875 3.46875,-6.234375 3.65625,-5.25 C 3.765625,-4.6875 3.765625,-3.9375 3.765625,-3.3125 C 3.765625,-2.5625 3.765625,-1.890625 3.65625,-1.25 C 3.5,-0.296875 2.9375,0 2.484375,0 z"
               style="stroke:none" />
          </symbol>
          <symbol
             id="textext-ed079bd7-5"
             overflow="visible"
             style="overflow:visible">
            <path
               id="path4391"
               d=""
               style="stroke:none" />
          </symbol>
          <symbol
             id="textext-ed079bd7-6"
             overflow="visible"
             style="overflow:visible">
            <path
               id="path4394"
               d="M 1.859375,-2.296875 C 2.15625,-2.296875 2.890625,-2.328125 3.390625,-2.53125 C 4.09375,-2.828125 4.140625,-3.421875 4.140625,-3.5625 C 4.140625,-4 3.765625,-4.40625 3.078125,-4.40625 C 1.96875,-4.40625 0.453125,-3.4375 0.453125,-1.6875 C 0.453125,-0.671875 1.046875,0.109375 2.03125,0.109375 C 3.453125,0.109375 4.28125,-0.953125 4.28125,-1.0625 C 4.28125,-1.125 4.234375,-1.203125 4.171875,-1.203125 C 4.109375,-1.203125 4.09375,-1.171875 4.03125,-1.09375 C 3.25,-0.109375 2.15625,-0.109375 2.046875,-0.109375 C 1.265625,-0.109375 1.171875,-0.953125 1.171875,-1.265625 C 1.171875,-1.390625 1.1875,-1.6875 1.328125,-2.296875 L 1.859375,-2.296875 z M 1.390625,-2.515625 C 1.78125,-4.03125 2.8125,-4.1875 3.078125,-4.1875 C 3.53125,-4.1875 3.8125,-3.890625 3.8125,-3.5625 C 3.8125,-2.515625 2.21875,-2.515625 1.796875,-2.515625 L 1.390625,-2.515625 z"
               style="stroke:none" />
          </symbol>
          <symbol
             id="textext-ed079bd7-7"
             overflow="visible"
             style="overflow:visible">
            <path
               id="path4397"
               d=""
               style="stroke:none" />
          </symbol>
          <symbol
             id="textext-ed079bd7-8"
             overflow="visible"
             style="overflow:visible">
            <path
               id="path4400"
               d="M 1.734375,-0.734375 C 1.671875,-0.5 1.4375,-0.125 1.078125,-0.125 C 1.0625,-0.125 0.84375,-0.125 0.703125,-0.21875 C 0.984375,-0.3125 1.015625,-0.5625 1.015625,-0.609375 C 1.015625,-0.765625 0.890625,-0.859375 0.734375,-0.859375 C 0.53125,-0.859375 0.328125,-0.703125 0.328125,-0.4375 C 0.328125,-0.09375 0.71875,0.0625 1.0625,0.0625 C 1.390625,0.0625 1.671875,-0.125 1.84375,-0.421875 C 2.015625,-0.0625 2.390625,0.0625 2.671875,0.0625 C 3.484375,0.0625 3.90625,-0.796875 3.90625,-1 C 3.90625,-1.09375 3.8125,-1.09375 3.796875,-1.09375 C 3.6875,-1.09375 3.6875,-1.046875 3.65625,-0.96875 C 3.515625,-0.484375 3.09375,-0.125 2.703125,-0.125 C 2.421875,-0.125 2.28125,-0.3125 2.28125,-0.578125 C 2.28125,-0.765625 2.453125,-1.390625 2.640625,-2.171875 C 2.78125,-2.703125 3.09375,-2.875 3.328125,-2.875 C 3.34375,-2.875 3.546875,-2.875 3.703125,-2.78125 C 3.484375,-2.71875 3.390625,-2.515625 3.390625,-2.390625 C 3.390625,-2.25 3.515625,-2.140625 3.671875,-2.140625 C 3.828125,-2.140625 4.0625,-2.265625 4.0625,-2.5625 C 4.0625,-2.953125 3.609375,-3.078125 3.34375,-3.078125 C 2.984375,-3.078125 2.703125,-2.84375 2.5625,-2.578125 C 2.4375,-2.859375 2.109375,-3.078125 1.71875,-3.078125 C 0.9375,-3.078125 0.5,-2.21875 0.5,-2 C 0.5,-1.921875 0.59375,-1.921875 0.609375,-1.921875 C 0.703125,-1.921875 0.703125,-1.9375 0.75,-2.03125 C 0.921875,-2.578125 1.359375,-2.875 1.703125,-2.875 C 1.9375,-2.875 2.125,-2.75 2.125,-2.421875 C 2.125,-2.28125 2.03125,-1.9375 1.96875,-1.6875 L 1.734375,-0.734375 z"
               style="stroke:none" />
          </symbol>
          <symbol
             id="textext-ed079bd7-9"
             overflow="visible"
             style="overflow:visible">
            <path
               id="path4403"
               d=""
               style="stroke:none" />
          </symbol>
          <symbol
             id="textext-ed079bd7-10"
             overflow="visible"
             style="overflow:visible">
            <path
               id="path4406"
               d="M 1.90625,-2.5 C 1.90625,-2.78125 1.671875,-3.015625 1.390625,-3.015625 C 1.09375,-3.015625 0.859375,-2.78125 0.859375,-2.5 C 0.859375,-2.203125 1.09375,-1.96875 1.390625,-1.96875 C 1.671875,-1.96875 1.90625,-2.203125 1.90625,-2.5 z"
               style="stroke:none" />
          </symbol>
        </g>
      </defs>
      <g
         id="textext-ed079bd7-11"
         style="fill:#ff0000;fill-opacity:1">
        <g
           id="g4409"
           style="fill:#ff0000;fill-opacity:1">
          <use
             id="use4411"
             y="134.765"
             x="223.43201"
             xlink:href="#textext-ed079bd7-1"
             width="1052.3622"
             height="744.09448"
             style="fill:#ff0000;fill-opacity:1" />
        </g>
        <g
           id="g4413"
           style="fill:#ff0000;fill-opacity:1">
          <use
             id="use4415"
             y="134.765"
             x="232.011"
             xlink:href="#textext-ed079bd7-10"
             width="1052.3622"
             height="744.09448"
             style="fill:#ff0000;fill-opacity:1" />
        </g>
        <g
           id="g4417"
           style="fill:#ff0000;fill-opacity:1">
          <use
             id="use4419"
             y="134.765"
             x="236.992"
             xlink:href="#textext-ed079bd7-6"
             width="1052.3622"
             height="744.09448"
             style="fill:#ff0000;fill-opacity:1" />
        </g>
        <g
           id="g4421"
           style="fill:#ff0000;fill-opacity:1">
          <use
             id="use4423"
             y="136.259"
             x="241.631"
             xlink:href="#textext-ed079bd7-8"
             width="1052.3622"
             height="744.09448"
             style="fill:#ff0000;fill-opacity:1" />
        </g>
        <g
           id="g4425"
           style="fill:#ff0000;fill-opacity:1">
          <use
             id="use4427"
             y="134.765"
             x="249.414"
             xlink:href="#textext-ed079bd7-3"
             width="1052.3622"
             height="744.09448"
             style="fill:#ff0000;fill-opacity:1" />
        </g>
        <g
           id="g4429"
           style="fill:#ff0000;fill-opacity:1">
          <use
             id="use4431"
             y="134.765"
             x="259.93253"
             xlink:href="#textext-ed079bd7-4"
             width="1052.3622"
             height="744.09448"
             style="fill:#ff0000;fill-opacity:1" />
        </g>
      </g>
    </g>
    <g
       id="g7888"
       transform="matrix(3,0,0,3,-263.88289,-313.2141)"
       ns0:preamble=""
       ns0:text="$\\textbf{u} \\cdot e_{x,y} = 0$">
      <defs
         id="defs7890">
        <g
           id="g7892">
          <symbol
             id="textext-7866a74f-0"
             overflow="visible"
             style="overflow:visible">
            <path
               id="path7895"
               d=""
               style="stroke:none" />
          </symbol>
          <symbol
             id="textext-7866a74f-1"
             overflow="visible"
             style="overflow:visible">
            <path
               id="path7898"
               d="M 6.84375,-3.265625 C 7,-3.265625 7.1875,-3.265625 7.1875,-3.453125 C 7.1875,-3.65625 7,-3.65625 6.859375,-3.65625 L 0.890625,-3.65625 C 0.75,-3.65625 0.5625,-3.65625 0.5625,-3.453125 C 0.5625,-3.265625 0.75,-3.265625 0.890625,-3.265625 L 6.84375,-3.265625 z M 6.859375,-1.328125 C 7,-1.328125 7.1875,-1.328125 7.1875,-1.53125 C 7.1875,-1.71875 7,-1.71875 6.84375,-1.71875 L 0.890625,-1.71875 C 0.75,-1.71875 0.5625,-1.71875 0.5625,-1.53125 C 0.5625,-1.328125 0.75,-1.328125 0.890625,-1.328125 L 6.859375,-1.328125 z"
               style="stroke:none" />
          </symbol>
          <symbol
             id="textext-7866a74f-2"
             overflow="visible"
             style="overflow:visible">
            <path
               id="path7901"
               d="M 4.578125,-3.1875 C 4.578125,-3.984375 4.53125,-4.78125 4.1875,-5.515625 C 3.734375,-6.484375 2.90625,-6.640625 2.5,-6.640625 C 1.890625,-6.640625 1.171875,-6.375 0.75,-5.453125 C 0.4375,-4.765625 0.390625,-3.984375 0.390625,-3.1875 C 0.390625,-2.4375 0.421875,-1.546875 0.84375,-0.78125 C 1.265625,0.015625 2,0.21875 2.484375,0.21875 C 3.015625,0.21875 3.78125,0.015625 4.21875,-0.9375 C 4.53125,-1.625 4.578125,-2.40625 4.578125,-3.1875 z M 2.484375,0 C 2.09375,0 1.5,-0.25 1.328125,-1.203125 C 1.21875,-1.796875 1.21875,-2.71875 1.21875,-3.3125 C 1.21875,-3.953125 1.21875,-4.609375 1.296875,-5.140625 C 1.484375,-6.328125 2.234375,-6.421875 2.484375,-6.421875 C 2.8125,-6.421875 3.46875,-6.234375 3.65625,-5.25 C 3.765625,-4.6875 3.765625,-3.9375 3.765625,-3.3125 C 3.765625,-2.5625 3.765625,-1.890625 3.65625,-1.25 C 3.5,-0.296875 2.9375,0 2.484375,0 z"
               style="stroke:none" />
          </symbol>
          <symbol
             id="textext-7866a74f-3"
             overflow="visible"
             style="overflow:visible">
            <path
               id="path7904"
               d=""
               style="stroke:none" />
          </symbol>
          <symbol
             id="textext-7866a74f-4"
             overflow="visible"
             style="overflow:visible">
            <path
               id="path7907"
               d="M 1.734375,-0.734375 C 1.671875,-0.5 1.4375,-0.125 1.078125,-0.125 C 1.0625,-0.125 0.84375,-0.125 0.703125,-0.21875 C 0.984375,-0.3125 1.015625,-0.5625 1.015625,-0.609375 C 1.015625,-0.765625 0.890625,-0.859375 0.734375,-0.859375 C 0.53125,-0.859375 0.328125,-0.703125 0.328125,-0.4375 C 0.328125,-0.09375 0.71875,0.0625 1.0625,0.0625 C 1.390625,0.0625 1.671875,-0.125 1.84375,-0.421875 C 2.015625,-0.0625 2.390625,0.0625 2.671875,0.0625 C 3.484375,0.0625 3.90625,-0.796875 3.90625,-1 C 3.90625,-1.09375 3.8125,-1.09375 3.796875,-1.09375 C 3.6875,-1.09375 3.6875,-1.046875 3.65625,-0.96875 C 3.515625,-0.484375 3.09375,-0.125 2.703125,-0.125 C 2.421875,-0.125 2.28125,-0.3125 2.28125,-0.578125 C 2.28125,-0.765625 2.453125,-1.390625 2.640625,-2.171875 C 2.78125,-2.703125 3.09375,-2.875 3.328125,-2.875 C 3.34375,-2.875 3.546875,-2.875 3.703125,-2.78125 C 3.484375,-2.71875 3.390625,-2.515625 3.390625,-2.390625 C 3.390625,-2.25 3.515625,-2.140625 3.671875,-2.140625 C 3.828125,-2.140625 4.0625,-2.265625 4.0625,-2.5625 C 4.0625,-2.953125 3.609375,-3.078125 3.34375,-3.078125 C 2.984375,-3.078125 2.703125,-2.84375 2.5625,-2.578125 C 2.4375,-2.859375 2.109375,-3.078125 1.71875,-3.078125 C 0.9375,-3.078125 0.5,-2.21875 0.5,-2 C 0.5,-1.921875 0.59375,-1.921875 0.609375,-1.921875 C 0.703125,-1.921875 0.703125,-1.9375 0.75,-2.03125 C 0.921875,-2.578125 1.359375,-2.875 1.703125,-2.875 C 1.9375,-2.875 2.125,-2.75 2.125,-2.421875 C 2.125,-2.28125 2.03125,-1.9375 1.96875,-1.6875 L 1.734375,-0.734375 z"
               style="stroke:none" />
          </symbol>
          <symbol
             id="textext-7866a74f-5"
             overflow="visible"
             style="overflow:visible">
            <path
               id="path7910"
               d="M 1.46875,-0.109375 C 1.46875,0.265625 1.40625,0.71875 0.921875,1.15625 C 0.90625,1.1875 0.875,1.21875 0.875,1.25 C 0.875,1.296875 0.9375,1.34375 0.96875,1.34375 C 1.078125,1.34375 1.671875,0.78125 1.671875,-0.046875 C 1.671875,-0.46875 1.5,-0.796875 1.171875,-0.796875 C 0.953125,-0.796875 0.78125,-0.625 0.78125,-0.40625 C 0.78125,-0.1875 0.9375,0 1.1875,0 C 1.359375,0 1.46875,-0.109375 1.46875,-0.109375 z"
               style="stroke:none" />
          </symbol>
          <symbol
             id="textext-7866a74f-6"
             overflow="visible"
             style="overflow:visible">
            <path
               id="path7913"
               d="M 3.875,-2.625 C 3.90625,-2.71875 3.90625,-2.734375 3.90625,-2.78125 C 3.90625,-2.921875 3.796875,-3 3.671875,-3 C 3.59375,-3 3.46875,-2.96875 3.390625,-2.84375 C 3.359375,-2.796875 3.3125,-2.578125 3.28125,-2.4375 L 3.125,-1.859375 C 3.09375,-1.6875 2.875,-0.8125 2.84375,-0.734375 C 2.84375,-0.734375 2.53125,-0.125 2,-0.125 C 1.515625,-0.125 1.515625,-0.578125 1.515625,-0.703125 C 1.515625,-1.078125 1.671875,-1.515625 1.890625,-2.0625 C 1.96875,-2.28125 2,-2.359375 2,-2.484375 C 2,-2.8125 1.71875,-3.078125 1.34375,-3.078125 C 0.640625,-3.078125 0.328125,-2.125 0.328125,-2 C 0.328125,-1.921875 0.421875,-1.921875 0.453125,-1.921875 C 0.546875,-1.921875 0.546875,-1.953125 0.578125,-2.03125 C 0.75,-2.609375 1.046875,-2.875 1.328125,-2.875 C 1.4375,-2.875 1.5,-2.796875 1.5,-2.640625 C 1.5,-2.46875 1.4375,-2.328125 1.40625,-2.234375 C 1.0625,-1.375 1,-1.125 1,-0.8125 C 1,-0.703125 1,-0.375 1.265625,-0.140625 C 1.484375,0.03125 1.78125,0.0625 1.96875,0.0625 C 2.25,0.0625 2.5,-0.03125 2.71875,-0.25 C 2.640625,0.140625 2.5625,0.4375 2.265625,0.78125 C 2.078125,1 1.796875,1.21875 1.421875,1.21875 C 1.375,1.21875 1.046875,1.21875 0.90625,1 C 1.28125,0.953125 1.28125,0.625 1.28125,0.609375 C 1.28125,0.390625 1.078125,0.34375 1.015625,0.34375 C 0.84375,0.34375 0.609375,0.484375 0.609375,0.8125 C 0.609375,1.15625 0.9375,1.421875 1.4375,1.421875 C 2.140625,1.421875 3,0.875 3.21875,0 L 3.875,-2.625 z"
               style="stroke:none" />
          </symbol>
          <symbol
             id="textext-7866a74f-7"
             overflow="visible"
             style="overflow:visible">
            <path
               id="path7916"
               d=""
               style="stroke:none" />
          </symbol>
          <symbol
             id="textext-7866a74f-8"
             overflow="visible"
             style="overflow:visible">
            <path
               id="path7919"
               d="M 4.359375,-0.71875 L 4.359375,0.0625 L 6.125,0 L 6.125,-0.46875 C 5.515625,-0.46875 5.4375,-0.46875 5.4375,-0.859375 L 5.4375,-4.484375 L 3.625,-4.40625 L 3.625,-3.9375 C 4.234375,-3.9375 4.3125,-3.9375 4.3125,-3.546875 L 4.3125,-1.640625 C 4.3125,-0.828125 3.796875,-0.296875 3.078125,-0.296875 C 2.296875,-0.296875 2.265625,-0.546875 2.265625,-1.09375 L 2.265625,-4.484375 L 0.453125,-4.40625 L 0.453125,-3.9375 C 1.0625,-3.9375 1.140625,-3.9375 1.140625,-3.546875 L 1.140625,-1.21875 C 1.140625,-0.15625 1.9375,0.0625 2.9375,0.0625 C 3.1875,0.0625 3.90625,0.0625 4.359375,-0.71875 z"
               style="stroke:none" />
          </symbol>
          <symbol
             id="textext-7866a74f-9"
             overflow="visible"
             style="overflow:visible">
            <path
               id="path7922"
               d=""
               style="stroke:none" />
          </symbol>
          <symbol
             id="textext-7866a74f-10"
             overflow="visible"
             style="overflow:visible">
            <path
               id="path7925"
               d="M 1.90625,-2.5 C 1.90625,-2.78125 1.671875,-3.015625 1.390625,-3.015625 C 1.09375,-3.015625 0.859375,-2.78125 0.859375,-2.5 C 0.859375,-2.203125 1.09375,-1.96875 1.390625,-1.96875 C 1.671875,-1.96875 1.90625,-2.203125 1.90625,-2.5 z"
               style="stroke:none" />
          </symbol>
          <symbol
             id="textext-7866a74f-11"
             overflow="visible"
             style="overflow:visible">
            <path
               id="path7928"
               d=""
               style="stroke:none" />
          </symbol>
          <symbol
             id="textext-7866a74f-12"
             overflow="visible"
             style="overflow:visible">
            <path
               id="path7931"
               d="M 1.859375,-2.296875 C 2.15625,-2.296875 2.890625,-2.328125 3.390625,-2.53125 C 4.09375,-2.828125 4.140625,-3.421875 4.140625,-3.5625 C 4.140625,-4 3.765625,-4.40625 3.078125,-4.40625 C 1.96875,-4.40625 0.453125,-3.4375 0.453125,-1.6875 C 0.453125,-0.671875 1.046875,0.109375 2.03125,0.109375 C 3.453125,0.109375 4.28125,-0.953125 4.28125,-1.0625 C 4.28125,-1.125 4.234375,-1.203125 4.171875,-1.203125 C 4.109375,-1.203125 4.09375,-1.171875 4.03125,-1.09375 C 3.25,-0.109375 2.15625,-0.109375 2.046875,-0.109375 C 1.265625,-0.109375 1.171875,-0.953125 1.171875,-1.265625 C 1.171875,-1.390625 1.1875,-1.6875 1.328125,-2.296875 L 1.859375,-2.296875 z M 1.390625,-2.515625 C 1.78125,-4.03125 2.8125,-4.1875 3.078125,-4.1875 C 3.53125,-4.1875 3.8125,-3.890625 3.8125,-3.5625 C 3.8125,-2.515625 2.21875,-2.515625 1.796875,-2.515625 L 1.390625,-2.515625 z"
               style="stroke:none" />
          </symbol>
        </g>
      </defs>
      <g
         id="textext-7866a74f-13">
        <g
           id="g7934"
           style="fill:#000000;fill-opacity:1">
          <use
             id="use7936"
             y="134.765"
             x="223.43201"
             xlink:href="#textext-7866a74f-8"
             width="1052.3622"
             height="744.09448" />
        </g>
        <g
           id="g7938"
           style="fill:#000000;fill-opacity:1">
          <use
             id="use7940"
             y="134.765"
             x="232.011"
             xlink:href="#textext-7866a74f-10"
             width="1052.3622"
             height="744.09448" />
        </g>
        <g
           id="g7942"
           style="fill:#000000;fill-opacity:1">
          <use
             id="use7944"
             y="134.765"
             x="236.992"
             xlink:href="#textext-7866a74f-12"
             width="1052.3622"
             height="744.09448" />
        </g>
        <g
           id="g7946"
           style="fill:#000000;fill-opacity:1">
          <use
             id="use7948"
             y="136.259"
             x="241.631"
             xlink:href="#textext-7866a74f-4"
             width="1052.3622"
             height="744.09448" />
          <use
             id="use7950"
             y="136.259"
             x="246.14862"
             xlink:href="#textext-7866a74f-5"
             width="1052.3622"
             height="744.09448" />
          <use
             id="use7952"
             y="136.259"
             x="248.51483"
             xlink:href="#textext-7866a74f-6"
             width="1052.3622"
             height="744.09448" />
        </g>
        <g
           id="g7954"
           style="fill:#000000;fill-opacity:1">
          <use
             id="use7956"
             y="134.765"
             x="256.07101"
             xlink:href="#textext-7866a74f-1"
             width="1052.3622"
             height="744.09448" />
        </g>
        <g
           id="g7958"
           style="fill:#000000;fill-opacity:1">
          <use
             id="use7960"
             y="134.765"
             x="266.58951"
             xlink:href="#textext-7866a74f-2"
             width="1052.3622"
             height="744.09448" />
        </g>
      </g>
    </g>
    <g
       ns0:text="$\\textbf{u} \\cdot e_{y,z} = 0$"
       ns0:preamble=""
       transform="matrix(3,0,0,3,153.42617,-4.1261794)"
       id="g8376">
      <defs
         id="defs8378">
        <g
           id="g8380">
          <symbol
             style="overflow:visible"
             overflow="visible"
             id="textext-479d9364-0">
            <path
               style="stroke:none"
               d=""
               id="path8383" />
          </symbol>
          <symbol
             style="overflow:visible"
             overflow="visible"
             id="textext-479d9364-1">
            <path
               style="stroke:none"
               d="M 4.359375,-0.71875 L 4.359375,0.0625 L 6.125,0 L 6.125,-0.46875 C 5.515625,-0.46875 5.4375,-0.46875 5.4375,-0.859375 L 5.4375,-4.484375 L 3.625,-4.40625 L 3.625,-3.9375 C 4.234375,-3.9375 4.3125,-3.9375 4.3125,-3.546875 L 4.3125,-1.640625 C 4.3125,-0.828125 3.796875,-0.296875 3.078125,-0.296875 C 2.296875,-0.296875 2.265625,-0.546875 2.265625,-1.09375 L 2.265625,-4.484375 L 0.453125,-4.40625 L 0.453125,-3.9375 C 1.0625,-3.9375 1.140625,-3.9375 1.140625,-3.546875 L 1.140625,-1.21875 C 1.140625,-0.15625 1.9375,0.0625 2.9375,0.0625 C 3.1875,0.0625 3.90625,0.0625 4.359375,-0.71875 z"
               id="path8386" />
          </symbol>
          <symbol
             style="overflow:visible"
             overflow="visible"
             id="textext-479d9364-2">
            <path
               style="stroke:none"
               d=""
               id="path8389" />
          </symbol>
          <symbol
             style="overflow:visible"
             overflow="visible"
             id="textext-479d9364-3">
            <path
               style="stroke:none"
               d="M 1.90625,-2.5 C 1.90625,-2.78125 1.671875,-3.015625 1.390625,-3.015625 C 1.09375,-3.015625 0.859375,-2.78125 0.859375,-2.5 C 0.859375,-2.203125 1.09375,-1.96875 1.390625,-1.96875 C 1.671875,-1.96875 1.90625,-2.203125 1.90625,-2.5 z"
               id="path8392" />
          </symbol>
          <symbol
             style="overflow:visible"
             overflow="visible"
             id="textext-479d9364-4">
            <path
               style="stroke:none"
               d=""
               id="path8395" />
          </symbol>
          <symbol
             style="overflow:visible"
             overflow="visible"
             id="textext-479d9364-5">
            <path
               style="stroke:none"
               d="M 1.859375,-2.296875 C 2.15625,-2.296875 2.890625,-2.328125 3.390625,-2.53125 C 4.09375,-2.828125 4.140625,-3.421875 4.140625,-3.5625 C 4.140625,-4 3.765625,-4.40625 3.078125,-4.40625 C 1.96875,-4.40625 0.453125,-3.4375 0.453125,-1.6875 C 0.453125,-0.671875 1.046875,0.109375 2.03125,0.109375 C 3.453125,0.109375 4.28125,-0.953125 4.28125,-1.0625 C 4.28125,-1.125 4.234375,-1.203125 4.171875,-1.203125 C 4.109375,-1.203125 4.09375,-1.171875 4.03125,-1.09375 C 3.25,-0.109375 2.15625,-0.109375 2.046875,-0.109375 C 1.265625,-0.109375 1.171875,-0.953125 1.171875,-1.265625 C 1.171875,-1.390625 1.1875,-1.6875 1.328125,-2.296875 L 1.859375,-2.296875 z M 1.390625,-2.515625 C 1.78125,-4.03125 2.8125,-4.1875 3.078125,-4.1875 C 3.53125,-4.1875 3.8125,-3.890625 3.8125,-3.5625 C 3.8125,-2.515625 2.21875,-2.515625 1.796875,-2.515625 L 1.390625,-2.515625 z"
               id="path8398" />
          </symbol>
          <symbol
             style="overflow:visible"
             overflow="visible"
             id="textext-479d9364-6">
            <path
               style="stroke:none"
               d=""
               id="path8401" />
          </symbol>
          <symbol
             style="overflow:visible"
             overflow="visible"
             id="textext-479d9364-7">
            <path
               style="stroke:none"
               d="M 6.84375,-3.265625 C 7,-3.265625 7.1875,-3.265625 7.1875,-3.453125 C 7.1875,-3.65625 7,-3.65625 6.859375,-3.65625 L 0.890625,-3.65625 C 0.75,-3.65625 0.5625,-3.65625 0.5625,-3.453125 C 0.5625,-3.265625 0.75,-3.265625 0.890625,-3.265625 L 6.84375,-3.265625 z M 6.859375,-1.328125 C 7,-1.328125 7.1875,-1.328125 7.1875,-1.53125 C 7.1875,-1.71875 7,-1.71875 6.84375,-1.71875 L 0.890625,-1.71875 C 0.75,-1.71875 0.5625,-1.71875 0.5625,-1.53125 C 0.5625,-1.328125 0.75,-1.328125 0.890625,-1.328125 L 6.859375,-1.328125 z"
               id="path8404" />
          </symbol>
          <symbol
             style="overflow:visible"
             overflow="visible"
             id="textext-479d9364-8">
            <path
               style="stroke:none"
               d="M 4.578125,-3.1875 C 4.578125,-3.984375 4.53125,-4.78125 4.1875,-5.515625 C 3.734375,-6.484375 2.90625,-6.640625 2.5,-6.640625 C 1.890625,-6.640625 1.171875,-6.375 0.75,-5.453125 C 0.4375,-4.765625 0.390625,-3.984375 0.390625,-3.1875 C 0.390625,-2.4375 0.421875,-1.546875 0.84375,-0.78125 C 1.265625,0.015625 2,0.21875 2.484375,0.21875 C 3.015625,0.21875 3.78125,0.015625 4.21875,-0.9375 C 4.53125,-1.625 4.578125,-2.40625 4.578125,-3.1875 z M 2.484375,0 C 2.09375,0 1.5,-0.25 1.328125,-1.203125 C 1.21875,-1.796875 1.21875,-2.71875 1.21875,-3.3125 C 1.21875,-3.953125 1.21875,-4.609375 1.296875,-5.140625 C 1.484375,-6.328125 2.234375,-6.421875 2.484375,-6.421875 C 2.8125,-6.421875 3.46875,-6.234375 3.65625,-5.25 C 3.765625,-4.6875 3.765625,-3.9375 3.765625,-3.3125 C 3.765625,-2.5625 3.765625,-1.890625 3.65625,-1.25 C 3.5,-0.296875 2.9375,0 2.484375,0 z"
               id="path8407" />
          </symbol>
          <symbol
             style="overflow:visible"
             overflow="visible"
             id="textext-479d9364-9">
            <path
               style="stroke:none"
               d=""
               id="path8410" />
          </symbol>
          <symbol
             style="overflow:visible"
             overflow="visible"
             id="textext-479d9364-10">
            <path
               style="stroke:none"
               d="M 3.875,-2.625 C 3.90625,-2.71875 3.90625,-2.734375 3.90625,-2.78125 C 3.90625,-2.921875 3.796875,-3 3.671875,-3 C 3.59375,-3 3.46875,-2.96875 3.390625,-2.84375 C 3.359375,-2.796875 3.3125,-2.578125 3.28125,-2.4375 L 3.125,-1.859375 C 3.09375,-1.6875 2.875,-0.8125 2.84375,-0.734375 C 2.84375,-0.734375 2.53125,-0.125 2,-0.125 C 1.515625,-0.125 1.515625,-0.578125 1.515625,-0.703125 C 1.515625,-1.078125 1.671875,-1.515625 1.890625,-2.0625 C 1.96875,-2.28125 2,-2.359375 2,-2.484375 C 2,-2.8125 1.71875,-3.078125 1.34375,-3.078125 C 0.640625,-3.078125 0.328125,-2.125 0.328125,-2 C 0.328125,-1.921875 0.421875,-1.921875 0.453125,-1.921875 C 0.546875,-1.921875 0.546875,-1.953125 0.578125,-2.03125 C 0.75,-2.609375 1.046875,-2.875 1.328125,-2.875 C 1.4375,-2.875 1.5,-2.796875 1.5,-2.640625 C 1.5,-2.46875 1.4375,-2.328125 1.40625,-2.234375 C 1.0625,-1.375 1,-1.125 1,-0.8125 C 1,-0.703125 1,-0.375 1.265625,-0.140625 C 1.484375,0.03125 1.78125,0.0625 1.96875,0.0625 C 2.25,0.0625 2.5,-0.03125 2.71875,-0.25 C 2.640625,0.140625 2.5625,0.4375 2.265625,0.78125 C 2.078125,1 1.796875,1.21875 1.421875,1.21875 C 1.375,1.21875 1.046875,1.21875 0.90625,1 C 1.28125,0.953125 1.28125,0.625 1.28125,0.609375 C 1.28125,0.390625 1.078125,0.34375 1.015625,0.34375 C 0.84375,0.34375 0.609375,0.484375 0.609375,0.8125 C 0.609375,1.15625 0.9375,1.421875 1.4375,1.421875 C 2.140625,1.421875 3,0.875 3.21875,0 L 3.875,-2.625 z"
               id="path8413" />
          </symbol>
          <symbol
             style="overflow:visible"
             overflow="visible"
             id="textext-479d9364-11">
            <path
               style="stroke:none"
               d="M 1.46875,-0.109375 C 1.46875,0.265625 1.40625,0.71875 0.921875,1.15625 C 0.90625,1.1875 0.875,1.21875 0.875,1.25 C 0.875,1.296875 0.9375,1.34375 0.96875,1.34375 C 1.078125,1.34375 1.671875,0.78125 1.671875,-0.046875 C 1.671875,-0.46875 1.5,-0.796875 1.171875,-0.796875 C 0.953125,-0.796875 0.78125,-0.625 0.78125,-0.40625 C 0.78125,-0.1875 0.9375,0 1.1875,0 C 1.359375,0 1.46875,-0.109375 1.46875,-0.109375 z"
               id="path8416" />
          </symbol>
          <symbol
             style="overflow:visible"
             overflow="visible"
             id="textext-479d9364-12">
            <path
               style="stroke:none"
               d="M 1.171875,-0.609375 C 1.359375,-0.796875 1.484375,-0.921875 2.0625,-1.40625 C 2.21875,-1.515625 2.734375,-1.9375 2.9375,-2.125 C 3.359375,-2.546875 3.625,-2.90625 3.625,-2.984375 C 3.625,-3.078125 3.546875,-3.078125 3.515625,-3.078125 C 3.453125,-3.078125 3.421875,-3.0625 3.390625,-3 C 3.171875,-2.6875 3.03125,-2.578125 2.859375,-2.578125 C 2.78125,-2.578125 2.671875,-2.578125 2.46875,-2.78125 C 2.234375,-3.03125 2.078125,-3.078125 1.921875,-3.078125 C 1.359375,-3.078125 0.984375,-2.46875 0.984375,-2.265625 C 0.984375,-2.1875 1.046875,-2.171875 1.09375,-2.171875 C 1.1875,-2.171875 1.203125,-2.1875 1.21875,-2.265625 C 1.328125,-2.515625 1.71875,-2.53125 1.828125,-2.53125 C 2,-2.53125 2.171875,-2.484375 2.265625,-2.46875 C 2.65625,-2.390625 2.703125,-2.390625 2.875,-2.390625 C 2.703125,-2.1875 2.578125,-2.0625 1.90625,-1.546875 C 1.359375,-1.109375 1.171875,-0.9375 1.046875,-0.796875 C 0.625,-0.390625 0.421875,-0.078125 0.421875,-0.015625 C 0.421875,0.0625 0.515625,0.0625 0.546875,0.0625 C 0.609375,0.0625 0.625,0.0625 0.65625,0 C 0.84375,-0.265625 1.0625,-0.421875 1.296875,-0.421875 C 1.390625,-0.421875 1.484375,-0.421875 1.671875,-0.25 C 1.890625,-0.03125 2.03125,0.0625 2.265625,0.0625 C 3,0.0625 3.46875,-0.78125 3.46875,-1.015625 C 3.46875,-1.09375 3.390625,-1.09375 3.359375,-1.09375 C 3.265625,-1.09375 3.25,-1.0625 3.21875,-0.984375 C 3.09375,-0.640625 2.6875,-0.46875 2.34375,-0.46875 C 2.1875,-0.46875 2,-0.515625 1.828125,-0.546875 C 1.515625,-0.625 1.453125,-0.625 1.328125,-0.625 C 1.3125,-0.625 1.21875,-0.625 1.171875,-0.609375 z"
               id="path8419" />
          </symbol>
        </g>
      </defs>
      <g
         id="textext-479d9364-13">
        <g
           style="fill:#000000;fill-opacity:1"
           id="g8422">
          <use
             height="744.09448"
             width="1052.3622"
             xlink:href="#textext-479d9364-1"
             x="223.43201"
             y="134.765"
             id="use8424" />
        </g>
        <g
           style="fill:#000000;fill-opacity:1"
           id="g8426">
          <use
             height="744.09448"
             width="1052.3622"
             xlink:href="#textext-479d9364-3"
             x="232.011"
             y="134.765"
             id="use8428" />
        </g>
        <g
           style="fill:#000000;fill-opacity:1"
           id="g8430">
          <use
             height="744.09448"
             width="1052.3622"
             xlink:href="#textext-479d9364-5"
             x="236.992"
             y="134.765"
             id="use8432" />
        </g>
        <g
           style="fill:#000000;fill-opacity:1"
           id="g8434">
          <use
             height="744.09448"
             width="1052.3622"
             xlink:href="#textext-479d9364-10"
             x="241.631"
             y="136.259"
             id="use8436" />
        </g>
        <g
           style="fill:#000000;fill-opacity:1"
           id="g8438">
          <use
             height="744.09448"
             width="1052.3622"
             xlink:href="#textext-479d9364-11"
             x="245.92268"
             y="136.259"
             id="use8440" />
          <use
             height="744.09448"
             width="1052.3622"
             xlink:href="#textext-479d9364-12"
             x="248.28888"
             y="136.259"
             id="use8442" />
        </g>
        <g
           style="fill:#000000;fill-opacity:1"
           id="g8444">
          <use
             height="744.09448"
             width="1052.3622"
             xlink:href="#textext-479d9364-7"
             x="255.646"
             y="134.765"
             id="use8446" />
        </g>
        <g
           style="fill:#000000;fill-opacity:1"
           id="g8448">
          <use
             height="744.09448"
             width="1052.3622"
             xlink:href="#textext-479d9364-8"
             x="266.16452"
             y="134.765"
             id="use8450" />
        </g>
      </g>
    </g>
    <g
       id="g8958"
       transform="matrix(3,0,0,3,-619.71321,24.158097)"
       ns0:preamble=""
       ns0:text="$\\textbf{u} \\cdot e_{x,z} = 0$">
      <defs
         id="defs8960">
        <g
           id="g8962">
          <symbol
             id="textext-c2a838ed-0"
             overflow="visible"
             style="overflow:visible">
            <path
               id="path8965"
               d=""
               style="stroke:none" />
          </symbol>
          <symbol
             id="textext-c2a838ed-1"
             overflow="visible"
             style="overflow:visible">
            <path
               id="path8968"
               d="M 4.359375,-0.71875 L 4.359375,0.0625 L 6.125,0 L 6.125,-0.46875 C 5.515625,-0.46875 5.4375,-0.46875 5.4375,-0.859375 L 5.4375,-4.484375 L 3.625,-4.40625 L 3.625,-3.9375 C 4.234375,-3.9375 4.3125,-3.9375 4.3125,-3.546875 L 4.3125,-1.640625 C 4.3125,-0.828125 3.796875,-0.296875 3.078125,-0.296875 C 2.296875,-0.296875 2.265625,-0.546875 2.265625,-1.09375 L 2.265625,-4.484375 L 0.453125,-4.40625 L 0.453125,-3.9375 C 1.0625,-3.9375 1.140625,-3.9375 1.140625,-3.546875 L 1.140625,-1.21875 C 1.140625,-0.15625 1.9375,0.0625 2.9375,0.0625 C 3.1875,0.0625 3.90625,0.0625 4.359375,-0.71875 z"
               style="stroke:none" />
          </symbol>
          <symbol
             id="textext-c2a838ed-2"
             overflow="visible"
             style="overflow:visible">
            <path
               id="path8971"
               d=""
               style="stroke:none" />
          </symbol>
          <symbol
             id="textext-c2a838ed-3"
             overflow="visible"
             style="overflow:visible">
            <path
               id="path8974"
               d="M 1.90625,-2.5 C 1.90625,-2.78125 1.671875,-3.015625 1.390625,-3.015625 C 1.09375,-3.015625 0.859375,-2.78125 0.859375,-2.5 C 0.859375,-2.203125 1.09375,-1.96875 1.390625,-1.96875 C 1.671875,-1.96875 1.90625,-2.203125 1.90625,-2.5 z"
               style="stroke:none" />
          </symbol>
          <symbol
             id="textext-c2a838ed-4"
             overflow="visible"
             style="overflow:visible">
            <path
               id="path8977"
               d=""
               style="stroke:none" />
          </symbol>
          <symbol
             id="textext-c2a838ed-5"
             overflow="visible"
             style="overflow:visible">
            <path
               id="path8980"
               d="M 1.859375,-2.296875 C 2.15625,-2.296875 2.890625,-2.328125 3.390625,-2.53125 C 4.09375,-2.828125 4.140625,-3.421875 4.140625,-3.5625 C 4.140625,-4 3.765625,-4.40625 3.078125,-4.40625 C 1.96875,-4.40625 0.453125,-3.4375 0.453125,-1.6875 C 0.453125,-0.671875 1.046875,0.109375 2.03125,0.109375 C 3.453125,0.109375 4.28125,-0.953125 4.28125,-1.0625 C 4.28125,-1.125 4.234375,-1.203125 4.171875,-1.203125 C 4.109375,-1.203125 4.09375,-1.171875 4.03125,-1.09375 C 3.25,-0.109375 2.15625,-0.109375 2.046875,-0.109375 C 1.265625,-0.109375 1.171875,-0.953125 1.171875,-1.265625 C 1.171875,-1.390625 1.1875,-1.6875 1.328125,-2.296875 L 1.859375,-2.296875 z M 1.390625,-2.515625 C 1.78125,-4.03125 2.8125,-4.1875 3.078125,-4.1875 C 3.53125,-4.1875 3.8125,-3.890625 3.8125,-3.5625 C 3.8125,-2.515625 2.21875,-2.515625 1.796875,-2.515625 L 1.390625,-2.515625 z"
               style="stroke:none" />
          </symbol>
          <symbol
             id="textext-c2a838ed-6"
             overflow="visible"
             style="overflow:visible">
            <path
               id="path8983"
               d=""
               style="stroke:none" />
          </symbol>
          <symbol
             id="textext-c2a838ed-7"
             overflow="visible"
             style="overflow:visible">
            <path
               id="path8986"
               d="M 1.734375,-0.734375 C 1.671875,-0.5 1.4375,-0.125 1.078125,-0.125 C 1.0625,-0.125 0.84375,-0.125 0.703125,-0.21875 C 0.984375,-0.3125 1.015625,-0.5625 1.015625,-0.609375 C 1.015625,-0.765625 0.890625,-0.859375 0.734375,-0.859375 C 0.53125,-0.859375 0.328125,-0.703125 0.328125,-0.4375 C 0.328125,-0.09375 0.71875,0.0625 1.0625,0.0625 C 1.390625,0.0625 1.671875,-0.125 1.84375,-0.421875 C 2.015625,-0.0625 2.390625,0.0625 2.671875,0.0625 C 3.484375,0.0625 3.90625,-0.796875 3.90625,-1 C 3.90625,-1.09375 3.8125,-1.09375 3.796875,-1.09375 C 3.6875,-1.09375 3.6875,-1.046875 3.65625,-0.96875 C 3.515625,-0.484375 3.09375,-0.125 2.703125,-0.125 C 2.421875,-0.125 2.28125,-0.3125 2.28125,-0.578125 C 2.28125,-0.765625 2.453125,-1.390625 2.640625,-2.171875 C 2.78125,-2.703125 3.09375,-2.875 3.328125,-2.875 C 3.34375,-2.875 3.546875,-2.875 3.703125,-2.78125 C 3.484375,-2.71875 3.390625,-2.515625 3.390625,-2.390625 C 3.390625,-2.25 3.515625,-2.140625 3.671875,-2.140625 C 3.828125,-2.140625 4.0625,-2.265625 4.0625,-2.5625 C 4.0625,-2.953125 3.609375,-3.078125 3.34375,-3.078125 C 2.984375,-3.078125 2.703125,-2.84375 2.5625,-2.578125 C 2.4375,-2.859375 2.109375,-3.078125 1.71875,-3.078125 C 0.9375,-3.078125 0.5,-2.21875 0.5,-2 C 0.5,-1.921875 0.59375,-1.921875 0.609375,-1.921875 C 0.703125,-1.921875 0.703125,-1.9375 0.75,-2.03125 C 0.921875,-2.578125 1.359375,-2.875 1.703125,-2.875 C 1.9375,-2.875 2.125,-2.75 2.125,-2.421875 C 2.125,-2.28125 2.03125,-1.9375 1.96875,-1.6875 L 1.734375,-0.734375 z"
               style="stroke:none" />
          </symbol>
          <symbol
             id="textext-c2a838ed-8"
             overflow="visible"
             style="overflow:visible">
            <path
               id="path8989"
               d="M 1.46875,-0.109375 C 1.46875,0.265625 1.40625,0.71875 0.921875,1.15625 C 0.90625,1.1875 0.875,1.21875 0.875,1.25 C 0.875,1.296875 0.9375,1.34375 0.96875,1.34375 C 1.078125,1.34375 1.671875,0.78125 1.671875,-0.046875 C 1.671875,-0.46875 1.5,-0.796875 1.171875,-0.796875 C 0.953125,-0.796875 0.78125,-0.625 0.78125,-0.40625 C 0.78125,-0.1875 0.9375,0 1.1875,0 C 1.359375,0 1.46875,-0.109375 1.46875,-0.109375 z"
               style="stroke:none" />
          </symbol>
          <symbol
             id="textext-c2a838ed-9"
             overflow="visible"
             style="overflow:visible">
            <path
               id="path8992"
               d="M 1.171875,-0.609375 C 1.359375,-0.796875 1.484375,-0.921875 2.0625,-1.40625 C 2.21875,-1.515625 2.734375,-1.9375 2.9375,-2.125 C 3.359375,-2.546875 3.625,-2.90625 3.625,-2.984375 C 3.625,-3.078125 3.546875,-3.078125 3.515625,-3.078125 C 3.453125,-3.078125 3.421875,-3.0625 3.390625,-3 C 3.171875,-2.6875 3.03125,-2.578125 2.859375,-2.578125 C 2.78125,-2.578125 2.671875,-2.578125 2.46875,-2.78125 C 2.234375,-3.03125 2.078125,-3.078125 1.921875,-3.078125 C 1.359375,-3.078125 0.984375,-2.46875 0.984375,-2.265625 C 0.984375,-2.1875 1.046875,-2.171875 1.09375,-2.171875 C 1.1875,-2.171875 1.203125,-2.1875 1.21875,-2.265625 C 1.328125,-2.515625 1.71875,-2.53125 1.828125,-2.53125 C 2,-2.53125 2.171875,-2.484375 2.265625,-2.46875 C 2.65625,-2.390625 2.703125,-2.390625 2.875,-2.390625 C 2.703125,-2.1875 2.578125,-2.0625 1.90625,-1.546875 C 1.359375,-1.109375 1.171875,-0.9375 1.046875,-0.796875 C 0.625,-0.390625 0.421875,-0.078125 0.421875,-0.015625 C 0.421875,0.0625 0.515625,0.0625 0.546875,0.0625 C 0.609375,0.0625 0.625,0.0625 0.65625,0 C 0.84375,-0.265625 1.0625,-0.421875 1.296875,-0.421875 C 1.390625,-0.421875 1.484375,-0.421875 1.671875,-0.25 C 1.890625,-0.03125 2.03125,0.0625 2.265625,0.0625 C 3,0.0625 3.46875,-0.78125 3.46875,-1.015625 C 3.46875,-1.09375 3.390625,-1.09375 3.359375,-1.09375 C 3.265625,-1.09375 3.25,-1.0625 3.21875,-0.984375 C 3.09375,-0.640625 2.6875,-0.46875 2.34375,-0.46875 C 2.1875,-0.46875 2,-0.515625 1.828125,-0.546875 C 1.515625,-0.625 1.453125,-0.625 1.328125,-0.625 C 1.3125,-0.625 1.21875,-0.625 1.171875,-0.609375 z"
               style="stroke:none" />
          </symbol>
          <symbol
             id="textext-c2a838ed-10"
             overflow="visible"
             style="overflow:visible">
            <path
               id="path8995"
               d=""
               style="stroke:none" />
          </symbol>
          <symbol
             id="textext-c2a838ed-11"
             overflow="visible"
             style="overflow:visible">
            <path
               id="path8998"
               d="M 6.84375,-3.265625 C 7,-3.265625 7.1875,-3.265625 7.1875,-3.453125 C 7.1875,-3.65625 7,-3.65625 6.859375,-3.65625 L 0.890625,-3.65625 C 0.75,-3.65625 0.5625,-3.65625 0.5625,-3.453125 C 0.5625,-3.265625 0.75,-3.265625 0.890625,-3.265625 L 6.84375,-3.265625 z M 6.859375,-1.328125 C 7,-1.328125 7.1875,-1.328125 7.1875,-1.53125 C 7.1875,-1.71875 7,-1.71875 6.84375,-1.71875 L 0.890625,-1.71875 C 0.75,-1.71875 0.5625,-1.71875 0.5625,-1.53125 C 0.5625,-1.328125 0.75,-1.328125 0.890625,-1.328125 L 6.859375,-1.328125 z"
               style="stroke:none" />
          </symbol>
          <symbol
             id="textext-c2a838ed-12"
             overflow="visible"
             style="overflow:visible">
            <path
               id="path9001"
               d="M 4.578125,-3.1875 C 4.578125,-3.984375 4.53125,-4.78125 4.1875,-5.515625 C 3.734375,-6.484375 2.90625,-6.640625 2.5,-6.640625 C 1.890625,-6.640625 1.171875,-6.375 0.75,-5.453125 C 0.4375,-4.765625 0.390625,-3.984375 0.390625,-3.1875 C 0.390625,-2.4375 0.421875,-1.546875 0.84375,-0.78125 C 1.265625,0.015625 2,0.21875 2.484375,0.21875 C 3.015625,0.21875 3.78125,0.015625 4.21875,-0.9375 C 4.53125,-1.625 4.578125,-2.40625 4.578125,-3.1875 z M 2.484375,0 C 2.09375,0 1.5,-0.25 1.328125,-1.203125 C 1.21875,-1.796875 1.21875,-2.71875 1.21875,-3.3125 C 1.21875,-3.953125 1.21875,-4.609375 1.296875,-5.140625 C 1.484375,-6.328125 2.234375,-6.421875 2.484375,-6.421875 C 2.8125,-6.421875 3.46875,-6.234375 3.65625,-5.25 C 3.765625,-4.6875 3.765625,-3.9375 3.765625,-3.3125 C 3.765625,-2.5625 3.765625,-1.890625 3.65625,-1.25 C 3.5,-0.296875 2.9375,0 2.484375,0 z"
               style="stroke:none" />
          </symbol>
        </g>
      </defs>
      <g
         id="textext-c2a838ed-13">
        <g
           id="g9004"
           style="fill:#000000;fill-opacity:1">
          <use
             id="use9006"
             y="134.765"
             x="223.43201"
             xlink:href="#textext-c2a838ed-1"
             width="1052.3622"
             height="744.09448" />
        </g>
        <g
           id="g9008"
           style="fill:#000000;fill-opacity:1">
          <use
             id="use9010"
             y="134.765"
             x="232.011"
             xlink:href="#textext-c2a838ed-3"
             width="1052.3622"
             height="744.09448" />
        </g>
        <g
           id="g9012"
           style="fill:#000000;fill-opacity:1">
          <use
             id="use9014"
             y="134.765"
             x="236.992"
             xlink:href="#textext-c2a838ed-5"
             width="1052.3622"
             height="744.09448" />
        </g>
        <g
           id="g9016"
           style="fill:#000000;fill-opacity:1">
          <use
             id="use9018"
             y="136.259"
             x="241.631"
             xlink:href="#textext-c2a838ed-7"
             width="1052.3622"
             height="744.09448" />
          <use
             id="use9020"
             y="136.259"
             x="246.14862"
             xlink:href="#textext-c2a838ed-8"
             width="1052.3622"
             height="744.09448" />
          <use
             id="use9022"
             y="136.259"
             x="248.51483"
             xlink:href="#textext-c2a838ed-9"
             width="1052.3622"
             height="744.09448" />
        </g>
        <g
           id="g9024"
           style="fill:#000000;fill-opacity:1">
          <use
             id="use9026"
             y="134.765"
             x="255.873"
             xlink:href="#textext-c2a838ed-11"
             width="1052.3622"
             height="744.09448" />
        </g>
        <g
           id="g9028"
           style="fill:#000000;fill-opacity:1">
          <use
             id="use9030"
             y="134.765"
             x="266.39151"
             xlink:href="#textext-c2a838ed-12"
             width="1052.3622"
             height="744.09448" />
        </g>
      </g>
    </g>
    <path
       style="fill:none;fill-rule:evenodd;stroke:#000000;stroke-width:1px;stroke-linecap:butt;stroke-linejoin:miter;stroke-opacity:1"
       d="M 509.11688,100.62732 C 509.11688,100.62732 495.9849,111.73899 518.20826,126.89128 C 540.43161,142.04357 520.22856,142.04357 523.25902,158.20601 C 526.28948,174.36845 546.49253,177.39891 546.49253,177.39891"
       id="path9285" />
    <path
       style="fill:none;fill-rule:evenodd;stroke:#000000;stroke-width:1px;stroke-linecap:butt;stroke-linejoin:miter;stroke-opacity:1"
       d="M 238.9949,497.61726 C 238.9949,497.61726 252.12688,486.50559 229.90352,471.3533 C 207.68017,456.20101 227.88322,456.20101 224.85276,440.03857 C 221.8223,423.87613 201.61925,420.84567 201.61925,420.84567"
       id="path9287" />
    <path
       style="fill:none;fill-rule:evenodd;stroke:#000000;stroke-width:1px;stroke-linecap:butt;stroke-linejoin:miter;stroke-opacity:1"
       d="M 761.65502,339.43455 C 761.65502,339.43455 772.76669,326.30257 787.91898,348.52593 C 803.07127,370.74928 803.07127,350.54623 819.23371,353.57669 C 835.39615,356.60715 838.42661,376.8102 838.42661,376.8102"
       id="path9289" />
    <path
       style="fill:none;fill-rule:evenodd;stroke:#0000ff;stroke-width:1px;stroke-linecap:butt;stroke-linejoin:miter;stroke-opacity:1"
       d="M 545.07112,577.41931 C 545.07112,577.41931 558.2031,588.53098 535.97974,603.68327 C 513.75639,618.83556 533.95944,618.83556 530.92898,634.998 C 527.89852,651.16044 507.69547,654.1909 507.69547,654.1909"
       id="path9367" />
    <g
       ns0:text="$\\textbf{u} = \\textbf{0}$"
       ns0:preamble=""
       transform="matrix(3,0,0,3,-244.69,277.72514)"
       id="g9626"
       style="fill:#0000ff;fill-opacity:1">
      <defs
         id="defs9628">
        <g
           id="g9630">
          <symbol
             overflow="visible"
             id="textext-dc1d165d-0">
            <path
               style="stroke: none;"
               d=""
               id="path9633" />
          </symbol>
          <symbol
             overflow="visible"
             id="textext-dc1d165d-1">
            <path
               style="stroke: none;"
               d="M 4.359375 -0.71875 L 4.359375 0.0625 L 6.125 0 L 6.125 -0.46875 C 5.515625 -0.46875 5.4375 -0.46875 5.4375 -0.859375 L 5.4375 -4.484375 L 3.625 -4.40625 L 3.625 -3.9375 C 4.234375 -3.9375 4.3125 -3.9375 4.3125 -3.546875 L 4.3125 -1.640625 C 4.3125 -0.828125 3.796875 -0.296875 3.078125 -0.296875 C 2.296875 -0.296875 2.265625 -0.546875 2.265625 -1.09375 L 2.265625 -4.484375 L 0.453125 -4.40625 L 0.453125 -3.9375 C 1.0625 -3.9375 1.140625 -3.9375 1.140625 -3.546875 L 1.140625 -1.21875 C 1.140625 -0.15625 1.9375 0.0625 2.9375 0.0625 C 3.1875 0.0625 3.90625 0.0625 4.359375 -0.71875 Z M 4.359375 -0.71875 "
               id="path9636" />
          </symbol>
          <symbol
             overflow="visible"
             id="textext-dc1d165d-2">
            <path
               style="stroke: none;"
               d="M 5.28125 -3.1875 C 5.28125 -4.140625 5.265625 -6.53125 2.859375 -6.53125 C 0.453125 -6.53125 0.453125 -4.15625 0.453125 -3.1875 C 0.453125 -2.1875 0.453125 0.109375 2.859375 0.109375 C 5.25 0.109375 5.28125 -2.1875 5.28125 -3.1875 Z M 2.859375 -0.25 C 2.5 -0.25 1.9375 -0.46875 1.8125 -1.203125 C 1.71875 -1.71875 1.71875 -2.75 1.71875 -3.296875 C 1.71875 -4.015625 1.71875 -4.671875 1.796875 -5.1875 C 1.921875 -6.078125 2.625 -6.171875 2.859375 -6.171875 C 3.234375 -6.171875 3.640625 -5.984375 3.828125 -5.546875 C 4 -5.171875 4 -4.109375 4 -3.296875 C 4 -2.734375 4 -1.828125 3.921875 -1.3125 C 3.78125 -0.390625 3.15625 -0.25 2.859375 -0.25 Z M 2.859375 -0.25 "
               id="path9639" />
          </symbol>
          <symbol
             overflow="visible"
             id="textext-dc1d165d-3">
            <path
               style="stroke: none;"
               d=""
               id="path9642" />
          </symbol>
          <symbol
             overflow="visible"
             id="textext-dc1d165d-4">
            <path
               style="stroke: none;"
               d="M 6.84375 -3.265625 C 7 -3.265625 7.1875 -3.265625 7.1875 -3.453125 C 7.1875 -3.65625 7 -3.65625 6.859375 -3.65625 L 0.890625 -3.65625 C 0.75 -3.65625 0.5625 -3.65625 0.5625 -3.453125 C 0.5625 -3.265625 0.75 -3.265625 0.890625 -3.265625 L 6.84375 -3.265625 Z M 6.859375 -1.328125 C 7 -1.328125 7.1875 -1.328125 7.1875 -1.53125 C 7.1875 -1.71875 7 -1.71875 6.84375 -1.71875 L 0.890625 -1.71875 C 0.75 -1.71875 0.5625 -1.71875 0.5625 -1.53125 C 0.5625 -1.328125 0.75 -1.328125 0.890625 -1.328125 L 6.859375 -1.328125 Z M 6.859375 -1.328125 "
               id="path9645" />
          </symbol>
        </g>
      </defs>
      <g
         id="textext-dc1d165d-5"
         style="fill:#0000ff;fill-opacity:1">
        <g
           style="fill:#0000ff;fill-opacity:1"
           id="g9648">
          <use
             xlink:href="#textext-dc1d165d-1"
             x="223.432"
             y="134.765"
             id="use9650"
             style="fill:#0000ff;fill-opacity:1" />
        </g>
        <g
           style="fill:#0000ff;fill-opacity:1"
           id="g9652">
          <use
             xlink:href="#textext-dc1d165d-4"
             x="232.564"
             y="134.765"
             id="use9654"
             style="fill:#0000ff;fill-opacity:1" />
        </g>
        <g
           style="fill:#0000ff;fill-opacity:1"
           id="g9656">
          <use
             xlink:href="#textext-dc1d165d-2"
             x="243.08"
             y="134.765"
             id="use9658"
             style="fill:#0000ff;fill-opacity:1" />
        </g>
      </g>
    </g>
    <path
       id="path9937"
       d="M 406.08133,511.7594 C 406.08133,511.7594 421.23361,584.49038 357.594,619.84572 C 293.95439,655.20106 301.02546,626.91679 275.77165,636.00816"
       style="fill:none;fill-rule:evenodd;stroke:#ff0000;stroke-width:1px;stroke-linecap:butt;stroke-linejoin:miter;stroke-opacity:1" />
    <g
       id="g10293"
       transform="matrix(3,0,0,3,-534.60378,245.40026)"
       ns0:preamble=""
       ns0:text="$\\textbf{u} \\cdot e_z = 0$"
       style="opacity:1;color:#000000;fill:#ff0000;fill-opacity:1;fill-rule:nonzero;stroke-width:1;stroke-linecap:butt;stroke-linejoin:miter;marker:none;marker-start:none;marker-mid:none;marker-end:none;stroke-miterlimit:4;stroke-dasharray:none;stroke-dashoffset:0;stroke-opacity:1;visibility:visible;display:inline;overflow:visible;enable-background:accumulate">
      <defs
         id="defs10295">
        <g
           id="g10297">
          <symbol
             id="textext-d7c381ad-0"
             overflow="visible">
            <path
               id="path10300"
               d=""
               style="stroke: none;" />
          </symbol>
          <symbol
             id="textext-d7c381ad-1"
             overflow="visible">
            <path
               id="path10303"
               d="M 1.171875 -0.609375 C 1.359375 -0.796875 1.484375 -0.921875 2.0625 -1.40625 C 2.21875 -1.515625 2.734375 -1.9375 2.9375 -2.125 C 3.359375 -2.546875 3.625 -2.90625 3.625 -2.984375 C 3.625 -3.078125 3.546875 -3.078125 3.515625 -3.078125 C 3.453125 -3.078125 3.421875 -3.0625 3.390625 -3 C 3.171875 -2.6875 3.03125 -2.578125 2.859375 -2.578125 C 2.78125 -2.578125 2.671875 -2.578125 2.46875 -2.78125 C 2.234375 -3.03125 2.078125 -3.078125 1.921875 -3.078125 C 1.359375 -3.078125 0.984375 -2.46875 0.984375 -2.265625 C 0.984375 -2.1875 1.046875 -2.171875 1.09375 -2.171875 C 1.1875 -2.171875 1.203125 -2.1875 1.21875 -2.265625 C 1.328125 -2.515625 1.71875 -2.53125 1.828125 -2.53125 C 2 -2.53125 2.171875 -2.484375 2.265625 -2.46875 C 2.65625 -2.390625 2.703125 -2.390625 2.875 -2.390625 C 2.703125 -2.1875 2.578125 -2.0625 1.90625 -1.546875 C 1.359375 -1.109375 1.171875 -0.9375 1.046875 -0.796875 C 0.625 -0.390625 0.421875 -0.078125 0.421875 -0.015625 C 0.421875 0.0625 0.515625 0.0625 0.546875 0.0625 C 0.609375 0.0625 0.625 0.0625 0.65625 0 C 0.84375 -0.265625 1.0625 -0.421875 1.296875 -0.421875 C 1.390625 -0.421875 1.484375 -0.421875 1.671875 -0.25 C 1.890625 -0.03125 2.03125 0.0625 2.265625 0.0625 C 3 0.0625 3.46875 -0.78125 3.46875 -1.015625 C 3.46875 -1.09375 3.390625 -1.09375 3.359375 -1.09375 C 3.265625 -1.09375 3.25 -1.0625 3.21875 -0.984375 C 3.09375 -0.640625 2.6875 -0.46875 2.34375 -0.46875 C 2.1875 -0.46875 2 -0.515625 1.828125 -0.546875 C 1.515625 -0.625 1.453125 -0.625 1.328125 -0.625 C 1.3125 -0.625 1.21875 -0.625 1.171875 -0.609375 Z M 1.171875 -0.609375 "
               style="stroke: none;" />
          </symbol>
          <symbol
             id="textext-d7c381ad-2"
             overflow="visible">
            <path
               id="path10306"
               d=""
               style="stroke: none;" />
          </symbol>
          <symbol
             id="textext-d7c381ad-3"
             overflow="visible">
            <path
               id="path10309"
               d="M 1.90625 -2.5 C 1.90625 -2.78125 1.671875 -3.015625 1.390625 -3.015625 C 1.09375 -3.015625 0.859375 -2.78125 0.859375 -2.5 C 0.859375 -2.203125 1.09375 -1.96875 1.390625 -1.96875 C 1.671875 -1.96875 1.90625 -2.203125 1.90625 -2.5 Z M 1.90625 -2.5 "
               style="stroke: none;" />
          </symbol>
          <symbol
             id="textext-d7c381ad-4"
             overflow="visible">
            <path
               id="path10312"
               d=""
               style="stroke: none;" />
          </symbol>
          <symbol
             id="textext-d7c381ad-5"
             overflow="visible">
            <path
               id="path10315"
               d="M 4.359375 -0.71875 L 4.359375 0.0625 L 6.125 0 L 6.125 -0.46875 C 5.515625 -0.46875 5.4375 -0.46875 5.4375 -0.859375 L 5.4375 -4.484375 L 3.625 -4.40625 L 3.625 -3.9375 C 4.234375 -3.9375 4.3125 -3.9375 4.3125 -3.546875 L 4.3125 -1.640625 C 4.3125 -0.828125 3.796875 -0.296875 3.078125 -0.296875 C 2.296875 -0.296875 2.265625 -0.546875 2.265625 -1.09375 L 2.265625 -4.484375 L 0.453125 -4.40625 L 0.453125 -3.9375 C 1.0625 -3.9375 1.140625 -3.9375 1.140625 -3.546875 L 1.140625 -1.21875 C 1.140625 -0.15625 1.9375 0.0625 2.9375 0.0625 C 3.1875 0.0625 3.90625 0.0625 4.359375 -0.71875 Z M 4.359375 -0.71875 "
               style="stroke: none;" />
          </symbol>
          <symbol
             id="textext-d7c381ad-6"
             overflow="visible">
            <path
               id="path10318"
               d=""
               style="stroke: none;" />
          </symbol>
          <symbol
             id="textext-d7c381ad-7"
             overflow="visible">
            <path
               id="path10321"
               d="M 6.84375 -3.265625 C 7 -3.265625 7.1875 -3.265625 7.1875 -3.453125 C 7.1875 -3.65625 7 -3.65625 6.859375 -3.65625 L 0.890625 -3.65625 C 0.75 -3.65625 0.5625 -3.65625 0.5625 -3.453125 C 0.5625 -3.265625 0.75 -3.265625 0.890625 -3.265625 L 6.84375 -3.265625 Z M 6.859375 -1.328125 C 7 -1.328125 7.1875 -1.328125 7.1875 -1.53125 C 7.1875 -1.71875 7 -1.71875 6.84375 -1.71875 L 0.890625 -1.71875 C 0.75 -1.71875 0.5625 -1.71875 0.5625 -1.53125 C 0.5625 -1.328125 0.75 -1.328125 0.890625 -1.328125 L 6.859375 -1.328125 Z M 6.859375 -1.328125 "
               style="stroke: none;" />
          </symbol>
          <symbol
             id="textext-d7c381ad-8"
             overflow="visible">
            <path
               id="path10324"
               d="M 4.578125 -3.1875 C 4.578125 -3.984375 4.53125 -4.78125 4.1875 -5.515625 C 3.734375 -6.484375 2.90625 -6.640625 2.5 -6.640625 C 1.890625 -6.640625 1.171875 -6.375 0.75 -5.453125 C 0.4375 -4.765625 0.390625 -3.984375 0.390625 -3.1875 C 0.390625 -2.4375 0.421875 -1.546875 0.84375 -0.78125 C 1.265625 0.015625 2 0.21875 2.484375 0.21875 C 3.015625 0.21875 3.78125 0.015625 4.21875 -0.9375 C 4.53125 -1.625 4.578125 -2.40625 4.578125 -3.1875 Z M 2.484375 0 C 2.09375 0 1.5 -0.25 1.328125 -1.203125 C 1.21875 -1.796875 1.21875 -2.71875 1.21875 -3.3125 C 1.21875 -3.953125 1.21875 -4.609375 1.296875 -5.140625 C 1.484375 -6.328125 2.234375 -6.421875 2.484375 -6.421875 C 2.8125 -6.421875 3.46875 -6.234375 3.65625 -5.25 C 3.765625 -4.6875 3.765625 -3.9375 3.765625 -3.3125 C 3.765625 -2.5625 3.765625 -1.890625 3.65625 -1.25 C 3.5 -0.296875 2.9375 0 2.484375 0 Z M 2.484375 0 "
               style="stroke: none;" />
          </symbol>
          <symbol
             id="textext-d7c381ad-9"
             overflow="visible">
            <path
               id="path10327"
               d=""
               style="stroke: none;" />
          </symbol>
          <symbol
             id="textext-d7c381ad-10"
             overflow="visible">
            <path
               id="path10330"
               d="M 1.859375 -2.296875 C 2.15625 -2.296875 2.890625 -2.328125 3.390625 -2.53125 C 4.09375 -2.828125 4.140625 -3.421875 4.140625 -3.5625 C 4.140625 -4 3.765625 -4.40625 3.078125 -4.40625 C 1.96875 -4.40625 0.453125 -3.4375 0.453125 -1.6875 C 0.453125 -0.671875 1.046875 0.109375 2.03125 0.109375 C 3.453125 0.109375 4.28125 -0.953125 4.28125 -1.0625 C 4.28125 -1.125 4.234375 -1.203125 4.171875 -1.203125 C 4.109375 -1.203125 4.09375 -1.171875 4.03125 -1.09375 C 3.25 -0.109375 2.15625 -0.109375 2.046875 -0.109375 C 1.265625 -0.109375 1.171875 -0.953125 1.171875 -1.265625 C 1.171875 -1.390625 1.1875 -1.6875 1.328125 -2.296875 L 1.859375 -2.296875 Z M 1.390625 -2.515625 C 1.78125 -4.03125 2.8125 -4.1875 3.078125 -4.1875 C 3.53125 -4.1875 3.8125 -3.890625 3.8125 -3.5625 C 3.8125 -2.515625 2.21875 -2.515625 1.796875 -2.515625 L 1.390625 -2.515625 Z M 1.390625 -2.515625 "
               style="stroke: none;" />
          </symbol>
        </g>
      </defs>
      <g
         id="textext-d7c381ad-11"
         style="color:#000000;fill:#ff0000;fill-opacity:1;fill-rule:nonzero;stroke-width:1;stroke-linecap:butt;stroke-linejoin:miter;marker:none;marker-start:none;marker-mid:none;marker-end:none;stroke-miterlimit:4;stroke-dasharray:none;stroke-dashoffset:0;stroke-opacity:1;visibility:visible;display:inline;overflow:visible;enable-background:accumulate">
        <g
           id="g10333"
           style="fill:#ff0000;fill-opacity:1;color:#000000;fill-rule:nonzero;stroke-width:1;stroke-linecap:butt;stroke-linejoin:miter;marker:none;marker-start:none;marker-mid:none;marker-end:none;stroke-miterlimit:4;stroke-dasharray:none;stroke-dashoffset:0;stroke-opacity:1;visibility:visible;display:inline;overflow:visible;enable-background:accumulate">
          <use
             id="use10335"
             y="134.765"
             x="223.432"
             xlink:href="#textext-d7c381ad-5"
             style="color:#000000;fill:#ff0000;fill-opacity:1;fill-rule:nonzero;stroke-width:1;stroke-linecap:butt;stroke-linejoin:miter;marker:none;marker-start:none;marker-mid:none;marker-end:none;stroke-miterlimit:4;stroke-dasharray:none;stroke-dashoffset:0;stroke-opacity:1;visibility:visible;display:inline;overflow:visible;enable-background:accumulate" />
        </g>
        <g
           id="g10337"
           style="fill:#ff0000;fill-opacity:1;color:#000000;fill-rule:nonzero;stroke-width:1;stroke-linecap:butt;stroke-linejoin:miter;marker:none;marker-start:none;marker-mid:none;marker-end:none;stroke-miterlimit:4;stroke-dasharray:none;stroke-dashoffset:0;stroke-opacity:1;visibility:visible;display:inline;overflow:visible;enable-background:accumulate">
          <use
             id="use10339"
             y="134.765"
             x="232.011"
             xlink:href="#textext-d7c381ad-3"
             style="color:#000000;fill:#ff0000;fill-opacity:1;fill-rule:nonzero;stroke-width:1;stroke-linecap:butt;stroke-linejoin:miter;marker:none;marker-start:none;marker-mid:none;marker-end:none;stroke-miterlimit:4;stroke-dasharray:none;stroke-dashoffset:0;stroke-opacity:1;visibility:visible;display:inline;overflow:visible;enable-background:accumulate" />
        </g>
        <g
           id="g10341"
           style="fill:#ff0000;fill-opacity:1;color:#000000;fill-rule:nonzero;stroke-width:1;stroke-linecap:butt;stroke-linejoin:miter;marker:none;marker-start:none;marker-mid:none;marker-end:none;stroke-miterlimit:4;stroke-dasharray:none;stroke-dashoffset:0;stroke-opacity:1;visibility:visible;display:inline;overflow:visible;enable-background:accumulate">
          <use
             id="use10343"
             y="134.765"
             x="236.992"
             xlink:href="#textext-d7c381ad-10"
             style="color:#000000;fill:#ff0000;fill-opacity:1;fill-rule:nonzero;stroke-width:1;stroke-linecap:butt;stroke-linejoin:miter;marker:none;marker-start:none;marker-mid:none;marker-end:none;stroke-miterlimit:4;stroke-dasharray:none;stroke-dashoffset:0;stroke-opacity:1;visibility:visible;display:inline;overflow:visible;enable-background:accumulate" />
        </g>
        <g
           id="g10345"
           style="fill:#ff0000;fill-opacity:1;color:#000000;fill-rule:nonzero;stroke-width:1;stroke-linecap:butt;stroke-linejoin:miter;marker:none;marker-start:none;marker-mid:none;marker-end:none;stroke-miterlimit:4;stroke-dasharray:none;stroke-dashoffset:0;stroke-opacity:1;visibility:visible;display:inline;overflow:visible;enable-background:accumulate">
          <use
             id="use10347"
             y="136.259"
             x="241.631"
             xlink:href="#textext-d7c381ad-1"
             style="color:#000000;fill:#ff0000;fill-opacity:1;fill-rule:nonzero;stroke-width:1;stroke-linecap:butt;stroke-linejoin:miter;marker:none;marker-start:none;marker-mid:none;marker-end:none;stroke-miterlimit:4;stroke-dasharray:none;stroke-dashoffset:0;stroke-opacity:1;visibility:visible;display:inline;overflow:visible;enable-background:accumulate" />
        </g>
        <g
           id="g10349"
           style="fill:#ff0000;fill-opacity:1;color:#000000;fill-rule:nonzero;stroke-width:1;stroke-linecap:butt;stroke-linejoin:miter;marker:none;marker-start:none;marker-mid:none;marker-end:none;stroke-miterlimit:4;stroke-dasharray:none;stroke-dashoffset:0;stroke-opacity:1;visibility:visible;display:inline;overflow:visible;enable-background:accumulate">
          <use
             id="use10351"
             y="134.765"
             x="248.989"
             xlink:href="#textext-d7c381ad-7"
             style="color:#000000;fill:#ff0000;fill-opacity:1;fill-rule:nonzero;stroke-width:1;stroke-linecap:butt;stroke-linejoin:miter;marker:none;marker-start:none;marker-mid:none;marker-end:none;stroke-miterlimit:4;stroke-dasharray:none;stroke-dashoffset:0;stroke-opacity:1;visibility:visible;display:inline;overflow:visible;enable-background:accumulate" />
        </g>
        <g
           id="g10353"
           style="fill:#ff0000;fill-opacity:1;color:#000000;fill-rule:nonzero;stroke-width:1;stroke-linecap:butt;stroke-linejoin:miter;marker:none;marker-start:none;marker-mid:none;marker-end:none;stroke-miterlimit:4;stroke-dasharray:none;stroke-dashoffset:0;stroke-opacity:1;visibility:visible;display:inline;overflow:visible;enable-background:accumulate">
          <use
             id="use10355"
             y="134.765"
             x="259.507513"
             xlink:href="#textext-d7c381ad-8"
             style="color:#000000;fill:#ff0000;fill-opacity:1;fill-rule:nonzero;stroke-width:1;stroke-linecap:butt;stroke-linejoin:miter;marker:none;marker-start:none;marker-mid:none;marker-end:none;stroke-miterlimit:4;stroke-dasharray:none;stroke-dashoffset:0;stroke-opacity:1;visibility:visible;display:inline;overflow:visible;enable-background:accumulate" />
        </g>
      </g>
    </g>
    <path
       sodipodi:type="arc"
       style="opacity:1;fill:#0000ff;fill-opacity:1;fill-rule:nonzero;stroke:#0000ff;stroke-width:3;stroke-linecap:butt;stroke-linejoin:miter;marker:none;marker-start:none;marker-mid:none;marker-end:none;stroke-miterlimit:4;stroke-dasharray:none;stroke-dashoffset:0;stroke-opacity:1;visibility:visible;display:inline;overflow:visible;enable-background:accumulate"
       id="path10673"
       sodipodi:cx="137.38075"
       sodipodi:cy="158.20601"
       sodipodi:rx="5.0507627"
       sodipodi:ry="5.0507627"
       d="M 142.43152,158.20601 A 5.0507627,5.0507627 0 1 1 132.32999,158.20601 A 5.0507627,5.0507627 0 1 1 142.43152,158.20601 z"
       transform="matrix(2,0,0,2,272.74118,248.88547)" />
  </g>
</svg>
