<?xml version="1.0" encoding="UTF-8" standalone="no"?>
<!-- Created with Inkscape (http://www.inkscape.org/) -->
<svg
   xmlns:ns0="http://www.iki.fi/pav/software/textext/"
   xmlns:dc="http://purl.org/dc/elements/1.1/"
   xmlns:cc="http://creativecommons.org/ns#"
   xmlns:rdf="http://www.w3.org/1999/02/22-rdf-syntax-ns#"
   xmlns:svg="http://www.w3.org/2000/svg"
   xmlns="http://www.w3.org/2000/svg"
   xmlns:xlink="http://www.w3.org/1999/xlink"
   xmlns:sodipodi="http://sodipodi.sourceforge.net/DTD/sodipodi-0.dtd"
   xmlns:inkscape="http://www.inkscape.org/namespaces/inkscape"
   width="1052.3622"
   height="744.09448"
   id="svg10695"
   sodipodi:version="0.32"
   inkscape:version="0.46"
   version="1.0"
   sodipodi:docname="bc_cube_flags_I_P1.svg"
   inkscape:output_extension="org.inkscape.output.svg.inkscape">
  <defs
     id="defs10697">
    <inkscape:perspective
       sodipodi:type="inkscape:persp3d"
       inkscape:vp_x="0 : 526.18109 : 1"
       inkscape:vp_y="0 : 1000 : 0"
       inkscape:vp_z="744.09448 : 526.18109 : 1"
       inkscape:persp3d-origin="372.04724 : 350.78739 : 1"
       id="perspective10703" />
  </defs>
  <sodipodi:namedview
     id="base"
     pagecolor="#ffffff"
     bordercolor="#666666"
     borderopacity="1.0"
     gridtolerance="10000"
     guidetolerance="10"
     objecttolerance="10"
     inkscape:pageopacity="0.0"
     inkscape:pageshadow="2"
     inkscape:zoom="1.4"
     inkscape:cx="526.31771"
     inkscape:cy="386.26799"
     inkscape:document-units="px"
     inkscape:current-layer="layer1"
     showgrid="false"
     inkscape:window-width="1280"
     inkscape:window-height="951"
     inkscape:window-x="0"
     inkscape:window-y="25" />
  <metadata
     id="metadata10700">
    <rdf:RDF>
      <cc:Work
         rdf:about="">
        <dc:format>image/svg+xml</dc:format>
        <dc:type
           rdf:resource="http://purl.org/dc/dcmitype/StillImage" />
      </cc:Work>
    </rdf:RDF>
  </metadata>
  <g
     inkscape:label="Layer 1"
     inkscape:groupmode="layer"
     id="layer1">
    <path
       id="path3285"
       d="M 554.11847,137.98644 L 554.11847,557.98644 L 789.83276,305.12929 M 552.6899,557.98644 L 215.54705,485.12929"
       style="fill:none;fill-rule:evenodd;stroke:#000000;stroke-width:5;stroke-linecap:butt;stroke-linejoin:miter;stroke-miterlimit:4;stroke-dasharray:none;stroke-opacity:1" />
    <path
       id="path3796"
       d="M 825.4566,560.99258 L 825.4566,665.99258 L 884.38517,602.77829 M 825.09945,665.99258 L 740.81374,647.77829"
       style="fill:none;fill-rule:evenodd;stroke:#000000;stroke-width:1.25;stroke-linecap:butt;stroke-linejoin:miter;stroke-miterlimit:4;stroke-dasharray:none;stroke-opacity:1" />
    <g
       id="g3806"
       ns0:preamble=""
       ns0:text="$x$"
       transform="matrix(2,0,0,2,439.92189,351.96443)">
      <defs
         id="defs3808">
        <g
           id="g3810">
          <symbol
             id="textext-a9a45495-0"
             overflow="visible"
             style="overflow:visible">
            <path
               id="path3813"
               d=""
               style="stroke:none" />
          </symbol>
          <symbol
             id="textext-a9a45495-1"
             overflow="visible"
             style="overflow:visible">
            <path
               id="path3816"
               d="M 3.328125,-3.015625 C 3.390625,-3.265625 3.625,-4.1875 4.3125,-4.1875 C 4.359375,-4.1875 4.609375,-4.1875 4.8125,-4.0625 C 4.53125,-4 4.34375,-3.765625 4.34375,-3.515625 C 4.34375,-3.359375 4.453125,-3.171875 4.71875,-3.171875 C 4.9375,-3.171875 5.25,-3.34375 5.25,-3.75 C 5.25,-4.265625 4.671875,-4.40625 4.328125,-4.40625 C 3.75,-4.40625 3.40625,-3.875 3.28125,-3.65625 C 3.03125,-4.3125 2.5,-4.40625 2.203125,-4.40625 C 1.171875,-4.40625 0.59375,-3.125 0.59375,-2.875 C 0.59375,-2.765625 0.703125,-2.765625 0.71875,-2.765625 C 0.796875,-2.765625 0.828125,-2.796875 0.84375,-2.875 C 1.1875,-3.9375 1.84375,-4.1875 2.1875,-4.1875 C 2.375,-4.1875 2.71875,-4.09375 2.71875,-3.515625 C 2.71875,-3.203125 2.546875,-2.546875 2.1875,-1.140625 C 2.03125,-0.53125 1.671875,-0.109375 1.234375,-0.109375 C 1.171875,-0.109375 0.953125,-0.109375 0.734375,-0.234375 C 0.984375,-0.296875 1.203125,-0.5 1.203125,-0.78125 C 1.203125,-1.046875 0.984375,-1.125 0.84375,-1.125 C 0.53125,-1.125 0.296875,-0.875 0.296875,-0.546875 C 0.296875,-0.09375 0.78125,0.109375 1.21875,0.109375 C 1.890625,0.109375 2.25,-0.59375 2.265625,-0.640625 C 2.390625,-0.28125 2.75,0.109375 3.34375,0.109375 C 4.375,0.109375 4.9375,-1.171875 4.9375,-1.421875 C 4.9375,-1.53125 4.859375,-1.53125 4.828125,-1.53125 C 4.734375,-1.53125 4.71875,-1.484375 4.6875,-1.421875 C 4.359375,-0.34375 3.6875,-0.109375 3.375,-0.109375 C 2.984375,-0.109375 2.828125,-0.421875 2.828125,-0.765625 C 2.828125,-0.984375 2.875,-1.203125 2.984375,-1.640625 L 3.328125,-3.015625 z"
               style="stroke:none" />
          </symbol>
        </g>
      </defs>
      <g
         id="textext-a9a45495-2">
        <g
           id="g3819"
           style="fill:#000000;fill-opacity:1">
          <use
             id="use3821"
             y="134.765"
             x="223.43201"
             xlink:href="#textext-a9a45495-1"
             width="1052.3622"
             height="744.09448" />
        </g>
      </g>
    </g>
    <g
       ns0:text="$y$"
       ns0:preamble=""
       transform="matrix(2,0,0,2,290.48804,397.75692)"
       id="g3877">
      <defs
         id="defs3879">
        <g
           id="g3881">
          <symbol
             style="overflow:visible"
             overflow="visible"
             id="textext-129d527c-0">
            <path
               style="stroke:none"
               d=""
               id="path3884" />
          </symbol>
          <symbol
             style="overflow:visible"
             overflow="visible"
             id="textext-129d527c-1">
            <path
               style="stroke:none"
               d="M 4.84375,-3.796875 C 4.890625,-3.9375 4.890625,-3.953125 4.890625,-4.03125 C 4.890625,-4.203125 4.75,-4.296875 4.59375,-4.296875 C 4.5,-4.296875 4.34375,-4.234375 4.25,-4.09375 C 4.234375,-4.03125 4.140625,-3.734375 4.109375,-3.546875 C 4.03125,-3.296875 3.96875,-3.015625 3.90625,-2.75 L 3.453125,-0.953125 C 3.421875,-0.8125 2.984375,-0.109375 2.328125,-0.109375 C 1.828125,-0.109375 1.71875,-0.546875 1.71875,-0.921875 C 1.71875,-1.375 1.890625,-2 2.21875,-2.875 C 2.375,-3.28125 2.421875,-3.390625 2.421875,-3.59375 C 2.421875,-4.03125 2.109375,-4.40625 1.609375,-4.40625 C 0.65625,-4.40625 0.296875,-2.953125 0.296875,-2.875 C 0.296875,-2.765625 0.390625,-2.765625 0.40625,-2.765625 C 0.515625,-2.765625 0.515625,-2.796875 0.5625,-2.953125 C 0.84375,-3.890625 1.234375,-4.1875 1.578125,-4.1875 C 1.65625,-4.1875 1.828125,-4.1875 1.828125,-3.875 C 1.828125,-3.625 1.71875,-3.359375 1.65625,-3.171875 C 1.25,-2.109375 1.078125,-1.546875 1.078125,-1.078125 C 1.078125,-0.1875 1.703125,0.109375 2.296875,0.109375 C 2.6875,0.109375 3.015625,-0.0625 3.296875,-0.34375 C 3.171875,0.171875 3.046875,0.671875 2.65625,1.203125 C 2.390625,1.53125 2.015625,1.828125 1.5625,1.828125 C 1.421875,1.828125 0.96875,1.796875 0.796875,1.40625 C 0.953125,1.40625 1.09375,1.40625 1.21875,1.28125 C 1.328125,1.203125 1.421875,1.0625 1.421875,0.875 C 1.421875,0.5625 1.15625,0.53125 1.0625,0.53125 C 0.828125,0.53125 0.5,0.6875 0.5,1.171875 C 0.5,1.671875 0.9375,2.046875 1.5625,2.046875 C 2.578125,2.046875 3.609375,1.140625 3.890625,0.015625 L 4.84375,-3.796875 z"
               id="path3887" />
          </symbol>
        </g>
      </defs>
      <g
         id="textext-129d527c-2">
        <g
           style="fill:#000000;fill-opacity:1"
           id="g3890">
          <use
             height="744.09448"
             width="1052.3622"
             xlink:href="#textext-129d527c-1"
             x="223.43201"
             y="134.765"
             id="use3892" />
        </g>
      </g>
    </g>
    <g
       id="g3968"
       transform="matrix(2,0,0,2,361.19872,310.8838)"
       ns0:preamble=""
       ns0:text="$z$">
      <defs
         id="defs3970">
        <g
           id="g3972">
          <symbol
             id="textext-222e8ddc-0"
             overflow="visible"
             style="overflow:visible">
            <path
               id="path3975"
               d=""
               style="stroke:none" />
          </symbol>
          <symbol
             id="textext-222e8ddc-1"
             overflow="visible"
             style="overflow:visible">
            <path
               id="path3978"
               d="M 1.328125,-0.828125 C 1.859375,-1.40625 2.15625,-1.65625 2.515625,-1.96875 C 2.515625,-1.96875 3.125,-2.5 3.484375,-2.859375 C 4.4375,-3.78125 4.65625,-4.265625 4.65625,-4.3125 C 4.65625,-4.40625 4.5625,-4.40625 4.546875,-4.40625 C 4.46875,-4.40625 4.453125,-4.390625 4.390625,-4.296875 C 4.09375,-3.8125 3.890625,-3.65625 3.65625,-3.65625 C 3.40625,-3.65625 3.296875,-3.8125 3.140625,-3.984375 C 2.953125,-4.203125 2.78125,-4.40625 2.453125,-4.40625 C 1.703125,-4.40625 1.25,-3.484375 1.25,-3.265625 C 1.25,-3.21875 1.28125,-3.15625 1.359375,-3.15625 C 1.453125,-3.15625 1.46875,-3.203125 1.5,-3.265625 C 1.6875,-3.734375 2.265625,-3.734375 2.34375,-3.734375 C 2.546875,-3.734375 2.734375,-3.671875 2.96875,-3.59375 C 3.375,-3.4375 3.484375,-3.4375 3.734375,-3.4375 C 3.375,-3.015625 2.546875,-2.296875 2.359375,-2.140625 C 1.859375,-1.6875 1.84375,-1.671875 1.453125,-1.296875 C 0.78125,-0.625 0.421875,-0.0625 0.421875,0.015625 C 0.421875,0.109375 0.53125,0.109375 0.546875,0.109375 C 0.625,0.109375 0.640625,0.09375 0.703125,-0.015625 C 0.9375,-0.375 1.234375,-0.640625 1.5625,-0.640625 C 1.78125,-0.640625 1.890625,-0.546875 2.140625,-0.265625 C 2.296875,-0.046875 2.484375,0.109375 2.765625,0.109375 C 3.765625,0.109375 4.34375,-1.15625 4.34375,-1.421875 C 4.34375,-1.46875 4.296875,-1.53125 4.21875,-1.53125 C 4.125,-1.53125 4.109375,-1.46875 4.078125,-1.390625 C 3.84375,-0.75 3.203125,-0.5625 2.875,-0.5625 C 2.6875,-0.5625 2.5,-0.625 2.296875,-0.6875 C 1.953125,-0.8125 1.796875,-0.859375 1.59375,-0.859375 C 1.578125,-0.859375 1.421875,-0.859375 1.328125,-0.828125 z"
               style="stroke:none" />
          </symbol>
        </g>
      </defs>
      <g
         id="textext-222e8ddc-2">
        <g
           id="g3981"
           style="fill:#000000;fill-opacity:1">
          <use
             id="use3983"
             y="134.765"
             x="223.43201"
             xlink:href="#textext-222e8ddc-1"
             width="1052.3622"
             height="744.09448" />
        </g>
      </g>
    </g>
    <path
       style="fill:none;fill-rule:evenodd;stroke:#000000;stroke-width:1px;stroke-linecap:butt;stroke-linejoin:miter;stroke-opacity:1"
       d="M 555.71428,389.09448 L 220,316.23734"
       id="path11192" />
    <path
       style="fill:none;fill-rule:evenodd;stroke:#000000;stroke-width:0.49910438px;stroke-linecap:butt;stroke-linejoin:miter;stroke-opacity:1"
       d="M 554.74955,229.34493 L 678.10759,114.55833"
       id="path11198" />
    <path
       style="fill:none;fill-rule:evenodd;stroke:#000000;stroke-width:1px;stroke-linecap:butt;stroke-linejoin:miter;stroke-opacity:1"
       d="M 555,231.23734 L 223.57143,485.52305"
       id="path11200" />
    <path
       style="fill:none;fill-rule:evenodd;stroke:#000000;stroke-width:1.04903424px;stroke-linecap:butt;stroke-linejoin:miter;stroke-opacity:1"
       d="M 393.59595,522.6414 L 394.97548,149.83328"
       id="path11204" />
    <path
       style="fill:none;fill-rule:evenodd;stroke:#000000;stroke-width:1px;stroke-linecap:butt;stroke-linejoin:miter;stroke-opacity:1"
       d="M 393.57143,522.66591 L 552.85714,388.3802"
       id="path11206" />
    <path
       style="fill:none;fill-rule:evenodd;stroke:#000000;stroke-width:1px;stroke-linecap:butt;stroke-linejoin:miter;stroke-opacity:1"
       d="M 553.57143,229.80877 L 315.71429,178.3802"
       id="path11208" />
    <path
       style="fill:none;fill-rule:evenodd;stroke:#000000;stroke-width:1.01793098px;stroke-linecap:butt;stroke-linejoin:miter;stroke-opacity:1"
       d="M 638.56246,129.10345 L 637.86611,466.94266"
       id="path11212" />
    <path
       style="fill:none;fill-rule:evenodd;stroke:#000000;stroke-width:1px;stroke-linecap:butt;stroke-linejoin:miter;stroke-opacity:1"
       d="M 554.28571,231.23734 L 727.85714,368.3802"
       id="path11218" />
    <path
       style="fill:none;fill-rule:evenodd;stroke:#000000;stroke-width:1px;stroke-linecap:butt;stroke-linejoin:miter;stroke-opacity:1"
       d="M 552.85714,387.66591 L 638.57143,467.66591"
       id="path11220" />
    <path
       style="fill:none;fill-rule:evenodd;stroke:#000000;stroke-width:1px;stroke-linecap:butt;stroke-linejoin:miter;stroke-opacity:1"
       d="M 555,388.3802 L 695.71429,232.66591"
       id="path11222" />
    <text
       xml:space="preserve"
       style="font-size:20px;font-style:normal;font-weight:normal;fill:#000000;fill-opacity:1;stroke:none;stroke-width:1px;stroke-linecap:butt;stroke-linejoin:miter;stroke-opacity:1;font-family:Bitstream Vera Sans"
       x="541.42859"
       y="581.95166"
       id="text11244"><tspan
         sodipodi:role="line"
         id="tspan11246"
         x="541.42859"
         y="581.95166" /></text>
    <text
       xml:space="preserve"
       style="font-size:20px;font-style:normal;font-weight:normal;fill:#000000;fill-opacity:1;stroke:none;stroke-width:1px;stroke-linecap:butt;stroke-linejoin:miter;stroke-opacity:1;font-family:Bitstream Vera Sans"
       x="547.85718"
       y="583.38019"
       id="text11292"><tspan
         sodipodi:role="line"
         id="tspan11294"
         x="547.85718"
         y="583.38019">1</tspan></text>
    <text
       xml:space="preserve"
       style="font-size:20px;font-style:normal;font-weight:normal;fill:#ff0000;fill-opacity:1;stroke:none;stroke-width:1px;stroke-linecap:butt;stroke-linejoin:miter;stroke-opacity:1;font-family:Bitstream Vera Sans"
       x="384.28571"
       y="546.23737"
       id="text11296"><tspan
         sodipodi:role="line"
         id="tspan11298"
         x="384.28571"
         y="546.23737">2</tspan></text>
    <text
       xml:space="preserve"
       style="font-size:20px;font-style:normal;font-weight:normal;fill:#0000ff;fill-opacity:1;stroke:none;stroke-width:1px;stroke-linecap:butt;stroke-linejoin:miter;stroke-opacity:1;font-family:Bitstream Vera Sans"
       x="644.28571"
       y="490.52307"
       id="text11308"><tspan
         sodipodi:role="line"
         id="tspan11310"
         x="644.28571"
         y="490.52307">3</tspan></text>
    <text
       xml:space="preserve"
       style="font-size:20px;font-style:normal;font-weight:normal;fill:#008000;fill-opacity:1;stroke:none;stroke-width:1px;stroke-linecap:butt;stroke-linejoin:miter;stroke-opacity:1;font-family:Bitstream Vera Sans"
       x="533.57141"
       y="376.95163"
       id="text11316"><tspan
         sodipodi:role="line"
         id="tspan11318"
         x="533.57141"
         y="376.95163">4</tspan></text>
    <text
       xml:space="preserve"
       style="font-size:20px;font-style:normal;font-weight:normal;fill:#ff00ff;fill-opacity:1;stroke:none;stroke-width:1px;stroke-linecap:butt;stroke-linejoin:miter;stroke-opacity:1;font-family:Bitstream Vera Sans"
       x="377.14285"
       y="344.80878"
       id="text11324"><tspan
         sodipodi:role="line"
         id="tspan11326"
         x="377.14285"
         y="344.80878">5</tspan></text>
    <text
       xml:space="preserve"
       style="font-size:20px;font-style:normal;font-weight:normal;fill:#c87137;fill-opacity:1;stroke:none;stroke-width:1px;stroke-linecap:butt;stroke-linejoin:miter;stroke-opacity:1;font-family:Bitstream Vera Sans"
       x="642.14288"
       y="134.80878"
       id="text11328"><tspan
         sodipodi:role="line"
         id="tspan11330"
         x="642.14288"
         y="134.80878">6</tspan></text>
    <text
       xml:space="preserve"
       style="font-size:20px;font-style:normal;font-weight:normal;fill:#000000;fill-opacity:1;stroke:none;stroke-width:1px;stroke-linecap:butt;stroke-linejoin:miter;stroke-opacity:1;font-family:Bitstream Vera Sans"
       x="470.71429"
       y="561.23737"
       id="text11885"><tspan
         sodipodi:role="line"
         id="tspan11887"></tspan></text>
    <text
       xml:space="preserve"
       style="font-size:20px;font-style:normal;font-weight:normal;fill:#ff0000;fill-opacity:1;stroke:none;stroke-width:1px;stroke-linecap:butt;stroke-linejoin:miter;stroke-opacity:1;font-family:Bitstream Vera Sans"
       x="211.76338"
       y="509.3735"
       id="text11985"><tspan
         sodipodi:role="line"
         id="tspan11987"
         x="211.76338"
         y="509.3735">2</tspan></text>
    <text
       xml:space="preserve"
       style="font-size:20px;font-style:normal;font-weight:normal;fill:#0000ff;fill-opacity:1;stroke:none;stroke-width:1px;stroke-linecap:butt;stroke-linejoin:miter;stroke-opacity:1;font-family:Bitstream Vera Sans"
       x="733.67676"
       y="394.2319"
       id="text11989"><tspan
         sodipodi:role="line"
         id="tspan11991"
         x="733.67676"
         y="394.2319">3</tspan></text>
    <text
       xml:space="preserve"
       style="font-size:20px;font-style:normal;font-weight:normal;fill:#008000;fill-opacity:1;stroke:none;stroke-width:1px;stroke-linecap:butt;stroke-linejoin:miter;stroke-opacity:1;font-family:Bitstream Vera Sans"
       x="536.56812"
       y="219.95593"
       id="text11993"><tspan
         sodipodi:role="line"
         id="tspan11995"
         x="536.56812"
         y="219.95593">4</tspan></text>
    <text
       xml:space="preserve"
       style="font-size:20px;font-style:normal;font-weight:normal;fill:#ff00ff;fill-opacity:1;stroke:none;stroke-width:1px;stroke-linecap:butt;stroke-linejoin:miter;stroke-opacity:1;font-family:Bitstream Vera Sans"
       x="380.16879"
       y="186.9572"
       id="text11997"><tspan
         sodipodi:role="line"
         id="tspan11999"
         x="380.16879"
         y="186.9572">5</tspan></text>
    <text
       xml:space="preserve"
       style="font-size:20px;font-style:normal;font-weight:normal;fill:#c87137;fill-opacity:1;stroke:none;stroke-width:1px;stroke-linecap:butt;stroke-linejoin:miter;stroke-opacity:1;font-family:Bitstream Vera Sans"
       x="640.60132"
       y="277.9639"
       id="text12001"><tspan
         sodipodi:role="line"
         id="tspan12003"
         x="640.60132"
         y="277.9639">6</tspan></text>
  </g>
</svg>
