<?xml version="1.0" encoding="UTF-8" standalone="no"?>
<!DOCTYPE svg PUBLIC "-//W3C//DTD SVG 1.1//EN"
 "http://www.w3.org/Graphics/SVG/1.1/DTD/svg11.dtd">
<!-- Generated by graphviz version 2.26.3 (20100126.1600)
 -->
<!-- Title: G Pages: 1 -->
<svg width="1013pt" height="194pt"
 viewBox="0.00 0.00 1013.00 194.00" xmlns="http://www.w3.org/2000/svg" xmlns:xlink="http://www.w3.org/1999/xlink">
<g id="graph1" class="graph" transform="scale(1 1) rotate(0) translate(4 190)">
<title>G</title>
<polygon fill="white" stroke="white" points="-4,5 -4,-190 1010,-190 1010,5 -4,5"/>
<!-- BC_Interface -->
<g id="node1" class="node"><title>BC_Interface</title>
<ellipse fill="none" stroke="black" cx="794" cy="-93" rx="74.2462" ry="18.3848"/>
<text text-anchor="middle" x="794" y="-89.4" font-family="Times Roman,serif" font-size="14.00">BC_Interface</text>
</g>
<!-- Core -->
<g id="node3" class="node"><title>Core</title>
<ellipse fill="none" stroke="black" cx="510" cy="-19" rx="34.1461" ry="18.3848"/>
<text text-anchor="middle" x="510" y="-15.4" font-family="Times Roman,serif" font-size="14.00">Core</text>
</g>
<!-- BC_Interface&#45;&gt;Core -->
<g id="edge2" class="edge"><title>BC_Interface&#45;&gt;Core</title>
<path fill="none" stroke="black" d="M742.57,-79.5992C687.538,-65.2599 601.358,-42.8046 550.803,-29.6316"/>
<polygon fill="black" stroke="black" points="551.442,-26.1815 540.883,-27.0469 549.677,-32.9553 551.442,-26.1815"/>
</g>
<!-- Level_Set -->
<g id="node4" class="node"><title>Level_Set</title>
<ellipse fill="none" stroke="black" cx="59" cy="-93" rx="58.8978" ry="18.3848"/>
<text text-anchor="middle" x="59" y="-89.4" font-family="Times Roman,serif" font-size="14.00">Level_Set</text>
</g>
<!-- Level_Set&#45;&gt;Core -->
<g id="edge4" class="edge"><title>Level_Set&#45;&gt;Core</title>
<path fill="none" stroke="black" d="M101.595,-80.1866C109.969,-77.9264 118.724,-75.7428 127,-74 248.859,-48.3393 395.073,-31.0013 466.466,-23.3886"/>
<polygon fill="black" stroke="black" points="466.867,-26.8658 476.444,-22.3361 466.132,-19.9044 466.867,-26.8658"/>
</g>
<!-- Darcy -->
<g id="node6" class="node"><title>Darcy</title>
<ellipse fill="none" stroke="black" cx="176" cy="-93" rx="39.8075" ry="18.3848"/>
<text text-anchor="middle" x="176" y="-89.4" font-family="Times Roman,serif" font-size="14.00">Darcy</text>
</g>
<!-- Darcy&#45;&gt;Core -->
<g id="edge6" class="edge"><title>Darcy&#45;&gt;Core</title>
<path fill="none" stroke="black" d="M207.168,-81.1738C214.586,-78.5991 222.521,-76.0388 230,-74 312.62,-51.4772 411.327,-34.294 466.727,-25.5085"/>
<polygon fill="black" stroke="black" points="467.546,-28.9229 476.883,-23.9153 466.461,-22.0075 467.546,-28.9229"/>
</g>
<!-- Navier_Stokes -->
<g id="node8" class="node"><title>Navier_Stokes</title>
<ellipse fill="none" stroke="black" cx="353" cy="-93" rx="80.8184" ry="18.3848"/>
<text text-anchor="middle" x="353" y="-89.4" font-family="Times Roman,serif" font-size="14.00">Navier_Stokes</text>
</g>
<!-- Navier_Stokes&#45;&gt;Core -->
<g id="edge8" class="edge"><title>Navier_Stokes&#45;&gt;Core</title>
<path fill="none" stroke="black" d="M388.626,-76.2083C414.458,-64.0327 449.224,-47.6458 474.927,-35.531"/>
<polygon fill="black" stroke="black" points="476.744,-38.5443 484.297,-31.1148 473.759,-32.2124 476.744,-38.5443"/>
</g>
<!-- Structure -->
<g id="node10" class="node"><title>Structure</title>
<ellipse fill="none" stroke="black" cx="510" cy="-93" rx="58.1882" ry="18.3848"/>
<text text-anchor="middle" x="510" y="-89.4" font-family="Times Roman,serif" font-size="14.00">Structure</text>
</g>
<!-- Structure&#45;&gt;Core -->
<g id="edge10" class="edge"><title>Structure&#45;&gt;Core</title>
<path fill="none" stroke="black" d="M510,-74.3267C510,-66.2639 510,-56.6477 510,-47.7115"/>
<polygon fill="black" stroke="black" points="513.5,-47.6673 510,-37.6674 506.5,-47.6674 513.5,-47.6673"/>
</g>
<!-- Heart -->
<g id="node12" class="node"><title>Heart</title>
<ellipse fill="none" stroke="black" cx="625" cy="-93" rx="39.0967" ry="18.3848"/>
<text text-anchor="middle" x="625" y="-89.4" font-family="Times Roman,serif" font-size="14.00">Heart</text>
</g>
<!-- Heart&#45;&gt;Core -->
<g id="edge12" class="edge"><title>Heart&#45;&gt;Core</title>
<path fill="none" stroke="black" d="M601.728,-78.025C584.084,-66.6717 559.681,-50.9685 540.48,-38.6131"/>
<polygon fill="black" stroke="black" points="542.37,-35.6675 532.067,-33.1995 538.582,-41.5541 542.37,-35.6675"/>
</g>
<!-- FSI -->
<g id="node14" class="node"><title>FSI</title>
<ellipse fill="none" stroke="black" cx="353" cy="-167" rx="27" ry="18.3848"/>
<text text-anchor="middle" x="353" y="-163.4" font-family="Times Roman,serif" font-size="14.00">FSI</text>
</g>
<!-- FSI&#45;&gt;Core -->
<g id="edge14" class="edge"><title>FSI&#45;&gt;Core</title>
<path fill="none" stroke="black" d="M328.092,-159.478C306.561,-151.503 276.794,-136.596 263,-112 254.739,-97.2696 252.435,-87.1763 263,-74 287.927,-42.9125 401.549,-28.2659 465.652,-22.3697"/>
<polygon fill="black" stroke="black" points="466.221,-25.8331 475.873,-21.465 465.604,-18.8604 466.221,-25.8331"/>
</g>
<!-- FSI&#45;&gt;Navier_Stokes -->
<g id="edge16" class="edge"><title>FSI&#45;&gt;Navier_Stokes</title>
<path fill="none" stroke="black" d="M353,-148.327C353,-140.264 353,-130.648 353,-121.711"/>
<polygon fill="black" stroke="black" points="356.5,-121.667 353,-111.667 349.5,-121.667 356.5,-121.667"/>
</g>
<!-- FSI&#45;&gt;Structure -->
<g id="edge18" class="edge"><title>FSI&#45;&gt;Structure</title>
<path fill="none" stroke="black" d="M375.494,-156.398C399.595,-145.038 438.39,-126.752 468.137,-112.732"/>
<polygon fill="black" stroke="black" points="469.894,-115.773 477.447,-108.343 466.909,-109.441 469.894,-115.773"/>
</g>
<!-- One_D_Hyperbolic -->
<g id="node18" class="node"><title>One_D_Hyperbolic</title>
<ellipse fill="none" stroke="black" cx="688" cy="-167" rx="101.116" ry="18.3848"/>
<text text-anchor="middle" x="688" y="-163.4" font-family="Times Roman,serif" font-size="14.00">One_D_Hyperbolic</text>
</g>
<!-- One_D_Hyperbolic&#45;&gt;BC_Interface -->
<g id="edge22" class="edge"><title>One_D_Hyperbolic&#45;&gt;BC_Interface</title>
<path fill="none" stroke="black" d="M713.66,-149.087C727.694,-139.289 745.25,-127.033 760.368,-116.479"/>
<polygon fill="black" stroke="black" points="762.746,-119.087 768.942,-110.493 758.739,-113.347 762.746,-119.087"/>
</g>
<!-- One_D_Hyperbolic&#45;&gt;Core -->
<g id="edge20" class="edge"><title>One_D_Hyperbolic&#45;&gt;Core</title>
<path fill="none" stroke="black" d="M690.247,-148.281C691.643,-127.671 690.544,-94.718 673,-74 657.142,-55.2734 594.481,-37.9261 551.636,-27.9033"/>
<polygon fill="black" stroke="black" points="552.278,-24.4596 541.748,-25.6371 550.714,-31.2827 552.278,-24.4596"/>
</g>
<!-- Zero_Dimensional -->
<g id="node21" class="node"><title>Zero_Dimensional</title>
<ellipse fill="none" stroke="black" cx="906" cy="-167" rx="99.201" ry="18.3848"/>
<text text-anchor="middle" x="906" y="-163.4" font-family="Times Roman,serif" font-size="14.00">Zero_Dimensional</text>
</g>
<!-- Zero_Dimensional&#45;&gt;BC_Interface -->
<g id="edge26" class="edge"><title>Zero_Dimensional&#45;&gt;BC_Interface</title>
<path fill="none" stroke="black" d="M878.888,-149.087C863.921,-139.198 845.163,-126.804 829.089,-116.184"/>
<polygon fill="black" stroke="black" points="830.749,-113.085 820.476,-110.493 826.89,-118.926 830.749,-113.085"/>
</g>
<!-- Zero_Dimensional&#45;&gt;Core -->
<g id="edge24" class="edge"><title>Zero_Dimensional&#45;&gt;Core</title>
<path fill="none" stroke="black" d="M905.723,-148.142C904.32,-126.765 898.573,-92.4914 877,-74 829.231,-33.054 640.733,-22.5725 554.044,-19.904"/>
<polygon fill="black" stroke="black" points="554.09,-16.4039 543.993,-19.6158 553.889,-23.4011 554.09,-16.4039"/>
</g>
</g>
</svg>
