<?xml version="1.0" encoding="UTF-8" standalone="no"?>
<!DOCTYPE svg PUBLIC "-//W3C//DTD SVG 1.1//EN"
 "http://www.w3.org/Graphics/SVG/1.1/DTD/svg11.dtd">
<!-- Generated by graphviz version 2.26.3 (20100126.1600)
 -->
<!-- Title: G Pages: 1 -->
<svg width="1000pt" height="194pt"
 viewBox="0.00 0.00 1000.00 194.00" xmlns="http://www.w3.org/2000/svg" xmlns:xlink="http://www.w3.org/1999/xlink">
<g id="graph1" class="graph" transform="scale(1 1) rotate(0) translate(4 190)">
<title>G</title>
<polygon fill="white" stroke="white" points="-4,5 -4,-190 997,-190 997,5 -4,5"/>
<!-- BCInterface -->
<g id="node1" class="node"><title>BCInterface</title>
<ellipse fill="none" stroke="black" cx="767" cy="-93" rx="68.7979" ry="18.3848"/>
<text text-anchor="middle" x="767" y="-89.4" font-family="Times Roman,serif" font-size="14.00">BCInterface</text>
</g>
<!-- Core -->
<g id="node3" class="node"><title>Core</title>
<ellipse fill="none" stroke="black" cx="545" cy="-19" rx="34.1461" ry="18.3848"/>
<text text-anchor="middle" x="545" y="-15.4" font-family="Times Roman,serif" font-size="14.00">Core</text>
</g>
<!-- BCInterface&#45;&gt;Core -->
<g id="edge2" class="edge"><title>BCInterface&#45;&gt;Core</title>
<path fill="none" stroke="black" d="M723.669,-78.5564C683.041,-65.0138 622.856,-44.9519 583.777,-31.9255"/>
<polygon fill="black" stroke="black" points="584.672,-28.5346 574.078,-28.6926 582.458,-35.1754 584.672,-28.5346"/>
</g>
<!-- LevelSet -->
<g id="node4" class="node"><title>LevelSet</title>
<ellipse fill="none" stroke="black" cx="54" cy="-93" rx="53.9477" ry="18.3848"/>
<text text-anchor="middle" x="54" y="-89.4" font-family="Times Roman,serif" font-size="14.00">LevelSet</text>
</g>
<!-- LevelSet&#45;&gt;Core -->
<g id="edge4" class="edge"><title>LevelSet&#45;&gt;Core</title>
<path fill="none" stroke="black" d="M93.0595,-80.1294C100.925,-77.8471 109.179,-75.6698 117,-74 255.373,-44.4549 422.53,-28.5682 500.685,-22.2678"/>
<polygon fill="black" stroke="black" points="501.417,-25.7208 511.11,-21.442 500.865,-18.7427 501.417,-25.7208"/>
</g>
<!-- Darcy -->
<g id="node6" class="node"><title>Darcy</title>
<ellipse fill="none" stroke="black" cx="166" cy="-93" rx="39.8075" ry="18.3848"/>
<text text-anchor="middle" x="166" y="-89.4" font-family="Times Roman,serif" font-size="14.00">Darcy</text>
</g>
<!-- Darcy&#45;&gt;Core -->
<g id="edge6" class="edge"><title>Darcy&#45;&gt;Core</title>
<path fill="none" stroke="black" d="M196.845,-81.1296C204.346,-78.5268 212.399,-75.9651 220,-74 319.192,-48.3566 438.598,-31.6807 501.431,-23.9714"/>
<polygon fill="black" stroke="black" points="501.879,-27.4429 511.386,-22.7672 501.038,-20.4935 501.879,-27.4429"/>
</g>
<!-- NavierStokes -->
<g id="node8" class="node"><title>NavierStokes</title>
<ellipse fill="none" stroke="black" cx="337" cy="-93" rx="75.1594" ry="18.3848"/>
<text text-anchor="middle" x="337" y="-89.4" font-family="Times Roman,serif" font-size="14.00">NavierStokes</text>
</g>
<!-- NavierStokes&#45;&gt;Core -->
<g id="edge8" class="edge"><title>NavierStokes&#45;&gt;Core</title>
<path fill="none" stroke="black" d="M379.846,-77.7569C417.24,-64.4531 470.994,-45.3291 506.91,-32.5513"/>
<polygon fill="black" stroke="black" points="508.29,-35.7752 516.538,-29.1258 505.944,-29.1802 508.29,-35.7752"/>
</g>
<!-- Structure -->
<g id="node10" class="node"><title>Structure</title>
<ellipse fill="none" stroke="black" cx="488" cy="-93" rx="58.1882" ry="18.3848"/>
<text text-anchor="middle" x="488" y="-89.4" font-family="Times Roman,serif" font-size="14.00">Structure</text>
</g>
<!-- Structure&#45;&gt;Core -->
<g id="edge10" class="edge"><title>Structure&#45;&gt;Core</title>
<path fill="none" stroke="black" d="M502.09,-74.7079C509.198,-65.4791 517.93,-54.1432 525.657,-44.1118"/>
<polygon fill="black" stroke="black" points="528.524,-46.1252 531.854,-36.0671 522.979,-41.8536 528.524,-46.1252"/>
</g>
<!-- Heart -->
<g id="node12" class="node"><title>Heart</title>
<ellipse fill="none" stroke="black" cx="603" cy="-93" rx="39.0967" ry="18.3848"/>
<text text-anchor="middle" x="603" y="-89.4" font-family="Times Roman,serif" font-size="14.00">Heart</text>
</g>
<!-- Heart&#45;&gt;Core -->
<g id="edge12" class="edge"><title>Heart&#45;&gt;Core</title>
<path fill="none" stroke="black" d="M589.255,-75.463C581.907,-66.0876 572.731,-54.3816 564.644,-44.0628"/>
<polygon fill="black" stroke="black" points="567.37,-41.8673 558.446,-36.1558 561.861,-46.1855 567.37,-41.8673"/>
</g>
<!-- FSI -->
<g id="node14" class="node"><title>FSI</title>
<ellipse fill="none" stroke="black" cx="337" cy="-167" rx="27" ry="18.3848"/>
<text text-anchor="middle" x="337" y="-163.4" font-family="Times Roman,serif" font-size="14.00">FSI</text>
</g>
<!-- FSI&#45;&gt;Core -->
<g id="edge14" class="edge"><title>FSI&#45;&gt;Core</title>
<path fill="none" stroke="black" d="M312.515,-158.518C292.492,-150.13 265.516,-135.155 253,-112 244.969,-97.1426 242.22,-87.0006 253,-74 283.953,-36.6724 426.927,-24.5077 500.694,-20.6791"/>
<polygon fill="black" stroke="black" points="501.237,-24.1568 511.054,-20.1727 500.895,-17.1651 501.237,-24.1568"/>
</g>
<!-- FSI&#45;&gt;NavierStokes -->
<g id="edge16" class="edge"><title>FSI&#45;&gt;NavierStokes</title>
<path fill="none" stroke="black" d="M337,-148.327C337,-140.264 337,-130.648 337,-121.711"/>
<polygon fill="black" stroke="black" points="340.5,-121.667 337,-111.667 333.5,-121.667 340.5,-121.667"/>
</g>
<!-- FSI&#45;&gt;Structure -->
<g id="edge18" class="edge"><title>FSI&#45;&gt;Structure</title>
<path fill="none" stroke="black" d="M359.281,-156.081C382.277,-144.811 418.675,-126.974 446.908,-113.138"/>
<polygon fill="black" stroke="black" points="448.699,-116.158 456.138,-108.614 445.618,-109.872 448.699,-116.158"/>
</g>
<!-- OneDFSI -->
<g id="node18" class="node"><title>OneDFSI</title>
<ellipse fill="none" stroke="black" cx="676" cy="-167" rx="55.1543" ry="18.3848"/>
<text text-anchor="middle" x="676" y="-163.4" font-family="Times Roman,serif" font-size="14.00">OneDFSI</text>
</g>
<!-- OneDFSI&#45;&gt;BCInterface -->
<g id="edge22" class="edge"><title>OneDFSI&#45;&gt;BCInterface</title>
<path fill="none" stroke="black" d="M697.106,-149.837C709.107,-140.078 724.321,-127.706 737.489,-116.998"/>
<polygon fill="black" stroke="black" points="739.826,-119.609 745.377,-110.584 735.41,-114.178 739.826,-119.609"/>
</g>
<!-- OneDFSI&#45;&gt;Core -->
<g id="edge20" class="edge"><title>OneDFSI&#45;&gt;Core</title>
<path fill="none" stroke="black" d="M675.323,-148.249C673.678,-127.916 668.29,-95.4957 651,-74 634.247,-53.1726 607.485,-39.3738 585.043,-30.8066"/>
<polygon fill="black" stroke="black" points="586.005,-27.433 575.411,-27.341 583.635,-34.0197 586.005,-27.433"/>
</g>
<!-- ZeroDimensional -->
<g id="node21" class="node"><title>ZeroDimensional</title>
<ellipse fill="none" stroke="black" cx="857" cy="-167" rx="94.7523" ry="18.3848"/>
<text text-anchor="middle" x="857" y="-163.4" font-family="Times Roman,serif" font-size="14.00">ZeroDimensional</text>
</g>
<!-- ZeroDimensional&#45;&gt;BCInterface -->
<g id="edge26" class="edge"><title>ZeroDimensional&#45;&gt;BCInterface</title>
<path fill="none" stroke="black" d="M834.753,-148.708C823.224,-139.228 808.991,-127.526 796.55,-117.297"/>
<polygon fill="black" stroke="black" points="798.628,-114.474 788.681,-110.826 794.182,-119.881 798.628,-114.474"/>
</g>
<!-- ZeroDimensional&#45;&gt;Core -->
<g id="edge24" class="edge"><title>ZeroDimensional&#45;&gt;Core</title>
<path fill="none" stroke="black" d="M860.441,-148.247C863.115,-127.293 863.708,-93.7268 845,-74 810.591,-37.7176 663.666,-25.0347 588.973,-20.8779"/>
<polygon fill="black" stroke="black" points="589.104,-17.3799 578.932,-20.3463 588.733,-24.3701 589.104,-17.3799"/>
</g>
<!-- Dummy -->
<g id="node24" class="node"><title>Dummy</title>
<ellipse fill="none" stroke="black" cx="942" cy="-93" rx="50.2046" ry="18.3848"/>
<text text-anchor="middle" x="942" y="-89.4" font-family="Times Roman,serif" font-size="14.00">Dummy</text>
</g>
<!-- Dummy&#45;&gt;Core -->
<g id="edge28" class="edge"><title>Dummy&#45;&gt;Core</title>
<path fill="none" stroke="black" d="M903.965,-80.8598C895.472,-78.3869 886.471,-75.9491 878,-74 775.224,-50.3541 652.367,-32.7714 588.464,-24.414"/>
<polygon fill="black" stroke="black" points="588.72,-20.9181 578.354,-23.1046 587.821,-27.8601 588.72,-20.9181"/>
</g>
</g>
</svg>
